<?xml version="1.0" encoding="utf-8"?>
<!-- Generator: Adobe Illustrator 24.0.1, SVG Export Plug-In . SVG Version: 6.00 Build 0)  -->
<svg version="1.1" id="Layer_1" xmlns="http://www.w3.org/2000/svg" xmlns:xlink="http://www.w3.org/1999/xlink" x="0px" y="0px"
	 viewBox="0 0 612 792" style="enable-background:new 0 0 612 792;" xml:space="preserve">
<style type="text/css">
	.st0{fill:none;stroke:#1A1A1A;stroke-width:1.5416;stroke-linecap:round;stroke-linejoin:round;stroke-miterlimit:5.1385;}
	
		.st1{fill:none;stroke:#1A1A1A;stroke-width:1.0277;stroke-linecap:round;stroke-linejoin:round;stroke-miterlimit:5.1385;stroke-dasharray:6.1662;}
	.st2{fill:#1A1A1A;stroke:#1A1A1A;stroke-width:1.0277;stroke-linecap:round;stroke-linejoin:round;stroke-miterlimit:5.1385;}
	.st3{fill:#FFFFFF;stroke:#1A1A1A;stroke-width:1.0277;stroke-linecap:round;stroke-linejoin:round;stroke-miterlimit:5.1385;}
	.st4{fill:none;stroke:#1A1A1A;stroke-width:1.0277;stroke-linecap:round;stroke-linejoin:round;stroke-miterlimit:5.1385;}
	.st5{fill:none;stroke:#FFFFFF;stroke-width:1.0277;stroke-linecap:round;stroke-linejoin:round;stroke-miterlimit:5.1385;}
	
		.st6{fill:none;stroke:#B3B3B3;stroke-width:1.0277;stroke-linecap:round;stroke-linejoin:round;stroke-miterlimit:5.1385;stroke-dasharray:6.1662;}
	.st7{fill:#29F3AF;stroke:#1A1A1A;stroke-width:1.0277;stroke-linecap:round;stroke-linejoin:round;stroke-miterlimit:5.1385;}
	.st8{fill:#FFFFFF;stroke:#1A1A1A;stroke-width:1.0277;stroke-linecap:round;stroke-linejoin:round;stroke-miterlimit:5.1383;}
	.st9{fill:#FFFFFF;stroke:#1A1A1A;stroke-width:1.0277;stroke-linecap:round;stroke-linejoin:round;stroke-miterlimit:5.1384;}
</style>
<path class="st0" d="M159.7,520.1c-57,28.8-68.6,49.3-67.1,63.4c2.4,22.6,39.1,31.4,39.8,59.2c0.6,20.2-18.5,25.4-15.8,40.7
	c4.9,28.2,77.8,54.5,119,30.9c19.3-11,14.2-23.1,33.8-35c8.2-5,28.8-14.8,116.7,4.1c59.5,12.8,61.5,19.8,86.2,18.6
	c29.2-1.4,80.5-13.7,93.3-49c15.5-42.7-36.7-88.1-44.2-94.3c-64.7-54.5-177.7-48.4-206.3-9.3c-5.2,7.1-9.4,17.7-19.6,19.6
	c-16.5,3-28.2-20.6-51.8-35.6C228.1,523.6,202.6,514.5,159.7,520.1L159.7,520.1z"/>
<path class="st1" d="M171.9,472c-12.1-41.1-10.7-87.6-3.4-137.7c26.3-181.2,223-282.7,223-282.7"/>
<path class="st2" d="M286.6,122.7c0,0,30.2,37.8,33.5,37.8c0.6-6.2,63.5-100,73.2-109.3C354.9,60.6,286.6,122.7,286.6,122.7
	L286.6,122.7z"/>
<polygon class="st3" points="320.1,160.6 299,128 395.4,50.2 "/>
<path class="st3" d="M286.6,122.7c0,0,84.5-66,108.7-72.5c-30.1,7-105.2,42.6-140.7,84.2C267.2,123.6,280.8,119,286.6,122.7z"/>
<path class="st3" d="M292.9,124.7c0,0,62.1-55.5,102.4-74.5c-54.1,47.8-81.1,78.6-94.4,116.7C295,151.4,292.9,124.7,292.9,124.7z"/>
<path class="st3" d="M395.5,434.1c-4.3-17.7,4.8-37.8,20.9-46.2c5.9-3.1,13.1-5.1,16.6-10.8c2.8-4.5,2.7-10.2,1.6-15.4
	c-0.7-3.3-1.6-6.6-1.8-9.9c-0.2-3.3,0.6-6.9,2.8-9.4c3.8-4.1,10.5-3.8,15.8-1.8c5.3,1.8,19.3,15.4,11.3,23.3c-1.7,1.7-4.4,2.7-5.1,5
	c-0.8,2.9,1.8,5.8,4.6,7c2.8,1.2,6,1.6,8.5,3.4c5,3.8,4.3,12.3-0.4,16.5c-4.6,4.3-11.6,5-17.8,3.9c-5-0.8-10.7-2.6-15,0.4
	c-2.2,1.5-3.5,4-4.3,6.6c-2.1,6.5-1.4,13.7-2.9,20.3c-1.5,6.7-6.7,13.6-13.5,13.3"/>
<path class="st3" d="M401,435.4c2.5-11.3,6-22.6,12.4-32.2c6.4-9.7,16-17.6,27.3-20"/>
<path class="st3" d="M405.8,437.1c2.2-8.7,8.4-16.2,16.6-19.9"/>
<path class="st3" d="M437.1,460.1c-0.7-4.6-1.3-9.3-0.7-13.9c0.6-4.6,2.8-9.2,6.6-11.9c3.5-2.4,7.9-2.8,12-3.5
	c4.1-0.7,8.5-1.9,11.2-5.2c4.6-5.8,1.5-15.1,6.1-20.9c3.1-4,8.6-4.9,13.7-4.9c2.9,0,5.9,0.2,8.7,1.2c2.8,1,5.3,2.9,6.6,5.5
	c2.2,4.5,0.2,10.2-3.5,13.5c-2.6,2.3-5.9,3.9-8,6.6c-3,4.2-2.3,10-1,15c1.3,5,3,10.3,1.6,15.3c-1.4,4.9-5.8,8.6-10.6,10.3
	c-4.8,1.7-10.1,1.7-15.2,1.3c-6.4-0.5-12.7-1.6-18.9-3.3"/>
<path class="st4" d="M439.7,461.2c-0.2-5.7,3.2-11,7.5-14.8c4.3-3.8,9.4-6.4,14.2-9.4s9.6-6.5,12.4-11.5c3.1-5.5,3.4-12.2,3.5-18.6"
	/>
<path class="st4" d="M442.7,462.9c1.4-5.2,6.2-8.8,11.2-11.1c4.9-2.2,10.3-3.5,15-6.2c4.7-2.7,8.9-7.3,8.8-12.7"/>
<path class="st4" d="M442.2,465.1c3.7-3.2,8.8-4.2,13.7-4.4c4.9-0.2,9.9,0.1,14.6-1.1c4.7-1.2,9.4-4.4,10.5-9.2"/>
<path class="st2" d="M423.6,504.1c1.8-4.4,7.5-6.1,12-4.9c4.6,1.2,8.3,4.4,11.7,7.8c3.4,3.3,6.7,6.8,11,8.7c3.8,1.6,8,1.9,12,2
	c4.8,0.2,10,0,13.7-3c4.1-3.3,5.1-9.1,5.4-14.4c0.1-2,0.2-4.1-0.3-6c-0.5-2-1.5-3.9-3.2-4.9c-2.4-1.5-5.4-1.1-8.2-1
	c-2.8,0.2-6.1-0.2-7.7-2.4c-1.3-1.7-1.2-4-2.1-6c-1.8-4.4-7.5-6-12-4.7s-8.2,4.6-11.5,8"/>
<path class="st5" d="M441.8,488.3c3.9-3.8,10.2-4.8,15.1-2.6c2.7,1.2,4.9,3.2,7.5,4.8c2.5,1.6,5.6,2.7,8.4,1.7"/>
<path class="st5" d="M437.5,492.7c5.7-1.7,12-1.2,17.4,1.4c3.2,1.6,6.1,3.9,9.2,5.7c3.2,1.7,6.9,2.9,10.4,2"/>
<path class="st5" d="M435.3,495.8c4-0.2,7.9,1.7,11.1,4.2c3.2,2.4,6.1,5.2,9.6,7.3c6.2,3.7,14.1,4.4,20.9,2"/>
<path class="st3" d="M120.6,493.1c15.6,31.3,38.8,30.9,64.3,50.5c12.7,9.8,30.3,27.3,26,45.2c-1.9,7.9-9,13.4-16,16.9
	c-10.4,5.2-21.4,6.7-30.5,14.7c-8.9,7.8-14.2,20.8-9.5,31.6c4.4,10.1,15.9,15.1,26.7,17.5c24,5.3,47.1,13.1,71.3,18.1
	c24.8,5.2,50,8.9,75.3,10.4c48.1,2.8,98.1-2.6,141.3-25.1c93.6-65-35.4-124.9-98.2-134.8c-6.3-1.2-14.3-4.2-13.9-10.5
	c10.9-27.8,86.8,0.1,93.6-46.2C449.9,390.8,88.8,392.9,120.6,493.1L120.6,493.1z"/>
<path class="st2" d="M376.9,545.8c0-0.6,0.7-1.2,1.5-1.8c-2-0.5-3.5-1-4.1-1.6c-1.5-1.9-8.5,8.2-8.5,8.2s1.8,1.7,4.5,4.4
	C373.6,553.1,375.7,549.8,376.9,545.8L376.9,545.8z"/>
<path class="st2" d="M403.5,578.2c-0.9-4-11.3-30.4-14.9-31.9c-0.4-0.2-0.9-0.4-1.5-0.5c6.7,10.7,11,23,15.3,34.8
	c0,0.1,0,0.1,0.1,0.2C403.4,580.2,403.8,579.3,403.5,578.2L403.5,578.2z"/>
<path class="st3" d="M387.2,545.8c-2.5-0.7-6-1.1-8.8-1.8c-0.8,0.6-1.5,1.2-1.5,1.8c-1.2,4-3.3,7.3-6.5,9.1
	c6.1,6,16.8,16.6,20.7,21.5c4,5,9.2,5.8,11.5,4.4c0-0.1,0-0.1-0.1-0.2C398.1,568.8,393.9,556.5,387.2,545.8L387.2,545.8z"/>
<path class="st3" d="M291.9,402.2c0,0,8.4,45.4,7.5,60.8l0.1,10.4c0,0,54.9,41,79.4,66c-4.9,9.5-12.1,13.4-12.1,13.4
	s-89.9-46.1-99.6-64.8c-9.7-18.7-25.5-77-25.7-101.2L291.9,402.2z"/>
<path class="st6" d="M267.5,390.1c0,0-3.8,74.5,27.2,100.6s73.6,53.3,73.6,53.3"/>
<path class="st2" d="M246.1,416.3c0,0,6.9-2.2,10.8-2c3.7,0.2,27.4,4.3,35.8-8.9l-4.4-11.9l-47-12
	C241.4,381.6,244.9,414.9,246.1,416.3z"/>
<path class="st3" d="M358.1,390.1c0,0.2,9.1,4.8,13,4.7c3.9-0.2,1.5,5.7-3.9,4.2c3.5,3.2,7.8,10.1,7.9,14.1c0.2,4-5.2,5.7-7.9,4.1
	S353,405.7,350,393.1C355.4,390.5,358.1,390.1,358.1,390.1z"/>
<path class="st7" d="M313,286.5c0,0,4.2,44.4,18.8,65.4c14.6,21,26.6,37,26.6,37s2,2.8-2.3,5.9c-4.3,3.1-7.9,2.1-11.6-1.4
	c-3.7-3.5-35.6-30.7-43.5-57.8L313,286.5L313,286.5z"/>
<path class="st3" d="M234.6,376.2c10.9,41.3,36.6,44.7,59.4,28.7c23.5-16.5,10.2-64.6,10.2-64.6l-34.5-7.8l-12.3,6.9L227,356.8"/>
<path class="st2" d="M259.4,350.6c0,0,9.1-8.3,16-8.4c6.9-0.1,22.5,5.7,28.8,5l1.6,0.3l-1.9-9.3c0,0-35.1-8.4-35.1-7.9
	c0,0.5-11.2,16.8-11.2,17.3S259.4,350.6,259.4,350.6L259.4,350.6z"/>
<path class="st3" d="M307.3,222.6c-1.5,6.2-12,19.2-12,19.2s26.4,6.2,27.1,6.2c0.7,0,22.4-47.6,22.4-47.6l-5.8-4.7
	c0,0-8.3-2.8-23.8,2.2c-15.5,5-17.8,10.6-15.2,14.7c2.6,4.2,4.9,11,10.9,11.1c6,0.1,8.4-0.6,8.4-0.6"/>
<path class="st2" d="M306.1,227.1c0,0,12.3-0.4,12.9-3.6c-9.4,2.6-11.6,0-11.6,0L306.1,227.1z"/>
<path class="st2" d="M312,270.9c6.1-4.1,15.3-4.7,20.3,1.2c5.8,7.6,3.3,18.3,6,27.1c11.3,32.4,31.3,39.3,63.5,33.1
	c0.8-23.3-32.4-29.6-32.5-52.6c0.2-6.8,4.1-13.1,4.1-19.8c0.1-6.5-3.4-12.4-6.2-18.3c-3.9-8.1-6.6-16.8-8.2-25.6
	c-1.2-10-4.2-24.9-16.7-25c-1.8,0.1-3.9,0.9-4.4,2.7c-0.6,2.4,2,4.6,1.6,7c-0.5,3.4-6.2,4.6-5.9,8c0.2,1.3,1.1,2.3,1.6,3.4
	c1.8,8.9-9.6,9.4-14.7,4.5c0,0,3.6,9.1,2.5,11.9s-15.4,18.7-15.4,18.7L312,270.9L312,270.9z"/>
<path class="st7" d="M254.7,338.6c9.1-13.7,8.2-34,3.2-45.8c-5-11.8-3.4-18-0.3-25.3c3.1-7.3,32.4-28.1,32.4-28.1s6.5-2.5,11.6-0.2
	c5.1,2.3,14.5,2.6,14.5,2.6s1.6,42.5-2.9,62.1c-4.6,19.5-1.4,37.1-10.1,38.3s-15.7-4.4-22-5c-9.7-1-14.9,4-18.8,10.5
	C258.3,354.2,254.7,338.6,254.7,338.6L254.7,338.6z"/>
<path class="st3" d="M391.5,169.4c0,0,4.3-12.8,9.8-19.5c5.5-6.6,11.1-8.1,9-3.8s-1.7,5.1,1.8,3.8c3.5-1.4,17.2-5,16,0.6
	c-1.2,5.7-8.4,13.1-19.2,13.3c-4.4,0-9.7,9.1-9.7,9.1L391.5,169.4L391.5,169.4z"/>
<path class="st7" d="M303.3,271.2c0,0-2.9-3.9-2.3-12.2c0.6-8.3,4.8-14.6,7.7-15.7c2.9-1,39.9-18.4,53.9-31.7
	c14-13.3,28.4-44.7,28.4-44.7l10.4,4.9c0,0-15.1,38.8-32.8,57s-44.3,45.7-55.2,47.6"/>
<path class="st2" d="M231.2,482.9c-8.2,7.1-14.3,14.3-20.5,24c-1.2,2-3.9,4.2-6.4,3.5c1.2,2.7,5,1.2,7.1-0.9
	c5.1-4.9,4.7-9.7,12.6-16.4c6.2-5.2,8.4-7.3,8.1-11.4C232,482.3,231.6,482.7,231.2,482.9L231.2,482.9z"/>
<path class="st3" d="M210.7,507c6.1-9.7,12.3-16.9,20.5-24c0.4-0.3,0.7-0.6,1-1.1c-0.1-1.1-0.4-2.5-0.9-4c-0.8-2.5-1.1-4.6-1.2-6.3
	c-4.2,1.2-8.1,3.3-12.8,2.8c-0.7,2.2-1.7,4.7-3.4,7c-4.1,5.4-7.1,14.7-9.4,23.8c-0.6,2.6-0.6,4.3-0.1,5.3
	C206.9,511.2,209.6,508.9,210.7,507L210.7,507z"/>
<path class="st2" d="M230.1,471.5c-0.3-3.1,0.2-4.7,0.2-4.7l-12,2.2c0,0-0.1,2.4-1,5.4C221.9,474.8,225.9,472.8,230.1,471.5z"/>
<ellipse class="st2" cx="436.3" cy="224.4" rx="7.1" ry="7.1"/>
<polygon class="st3" points="486,306.8 470.5,328.8 433.2,302.5 448.6,280.5 459.6,304.6 "/>
<polygon class="st2" points="486,306.8 459.6,304.6 448.6,280.5 "/>
<polygon class="st3" points="145.9,294.5 97.9,321.7 102.4,290 112.2,291 116.4,282.1 116.4,282.1 "/>
<polygon class="st3" points="145.9,294.5 116.4,282.1 126.6,260.3 "/>
<polygon class="st3" points="102.4,290 97.9,321.7 78.6,287.6 "/>
<polygon class="st3" points="126.6,260.3 116.4,282.1 116.4,282.1 112.2,291 102.4,290 78.6,287.6 "/>
<line class="st4" x1="102.4" y1="290" x2="102.4" y2="290"/>
<path class="st1" d="M278.8,650.2c0,0-75.2-70.6-106.8-178.2"/>
<rect x="276.3" y="588.2" class="st3" width="118.2" height="70.3"/>
<rect x="276.3" y="658.6" class="st2" width="118.2" height="6.1"/>
<polygon class="st2" points="338.4,630.9 276.3,588.2 394.4,588.2 "/>
<polygon class="st3" points="338.4,629.1 276.3,586.4 394.4,586.4 "/>
<line class="st4" x1="276.3" y1="664.7" x2="321.6" y2="619.4"/>
<line class="st4" x1="352.6" y1="620.2" x2="394.4" y2="664.7"/>
<ellipse transform="matrix(0.6399 -0.7684 0.7684 0.6399 -407.0626 316.249)" class="st8" cx="133.9" cy="592.5" rx="20.3" ry="14.7"/>
<ellipse transform="matrix(0.8858 -0.464 0.464 0.8858 -216.043 306.8777)" class="st9" cx="515.6" cy="592.5" rx="7" ry="9.7"/>
<path class="st0" d="M451,542.1c0,0,28,8.5,42.2,29.8"/>
<path class="st3" d="M264.5,357.6c0,0-13.5-72.9-48.1-51.7C181.8,327,214.6,472,214.6,472l17.9-3.3c0,0,7.5-76.1,0-104.7"/>
<path class="st6" d="M223.8,466.8c0,0-14.2-138.4,3.2-138.7s24.4,65.2,45.9,62.1c21.5-3.1,10.3-30.7,12.6-40.9"/>
</svg>
