<?xml version="1.0" encoding="utf-8"?>
<!-- Generator: Adobe Illustrator 24.0.1, SVG Export Plug-In . SVG Version: 6.00 Build 0)  -->
<svg version="1.1" id="Layer_1" xmlns="http://www.w3.org/2000/svg" xmlns:xlink="http://www.w3.org/1999/xlink" x="0px" y="0px"
	 width="712px" height="1033px" viewBox="0 0 712 1033" style="enable-background:new 0 0 712 1033;" xml:space="preserve">
<style type="text/css">
	.st0{fill:none;stroke:#1A1A1A;stroke-width:2;stroke-linecap:round;stroke-linejoin:round;}
	.st1{fill:#FFFFFF;stroke:#1A1A1A;stroke-width:2;stroke-linecap:round;stroke-linejoin:round;}
	.st2{fill:#1A1A1A;stroke:#1A1A1A;stroke-width:2;stroke-linecap:round;stroke-linejoin:round;}
	.st3{fill:#29F3AF;stroke:#1A1A1A;stroke-width:2;stroke-linecap:round;stroke-linejoin:round;}
	.st4{fill:#FFFFFF;stroke:#1A1A1A;stroke-width:3;stroke-linecap:round;stroke-linejoin:round;}
	.st5{fill:#29F3AF;stroke:#1A1A1A;stroke-width:3;stroke-linecap:round;stroke-linejoin:round;}
</style>
<title>pazzle-4</title>
<g id="Page-1">
	
		<g id="pazzle-4" transform="translate(355.636362, 516.521247) rotate(-14.000000) translate(-355.636362, -516.521247) translate(107.901843, 47.744536)">
		<line id="Path" class="st0" x1="268.9" y1="699" x2="361.7" y2="824.3"/>
		<line id="Path_1_" class="st0" x1="187.7" y1="168.5" x2="235.2" y2="245.7"/>
		<path id="Path_2_" class="st1" d="M494.6,846.4c0,50.4-40.8,91.2-91.2,91.2c-4.3,0-8.5-0.3-12.7-0.9l12.7-90.3l-75.6,51
			c-9.9-14.6-15.6-32.1-15.6-51c0-25.4,10.4-48.4,27.2-65c16.5-16.2,39-26.2,64-26.2C453.8,755.2,494.6,796,494.6,846.4z"/>
		<path id="Path_3_" class="st2" d="M403.5,846.4l-12.7,90.3c-26.2-3.6-48.8-18.4-62.9-39.3L403.5,846.4z"/>
		<path id="Path_4_" class="st1" d="M231.3,91.2c0,50.4-40.8,91.2-91.2,91.2c-4.3,0-8.5-0.3-12.7-0.9l12.7-90.3L166.9,4
			C204.2,15.4,231.3,50.1,231.3,91.2z"/>
		<path id="Path_5_" class="st3" d="M166.9,4l-26.8,87.2l-21.6-21.9L76.2,26.2l0,0C92.7,10,115.2,0,140.2,0
			C149.4,0,158.4,1.4,166.9,4z"/>
		<path id="Path_6_" class="st3" d="M140.1,91.2l-34.7,23.5l-40.8,27.6c-9.9-14.6-15.6-32.1-15.6-51c0-25.4,10.4-48.4,27.2-65
			l42.4,43.1L140.1,91.2z"/>
		<path id="Path_7_" class="st2" d="M140.1,91.2l-12.7,90.3c-26.2-3.6-48.8-18.4-62.9-39.3l40.8-27.6L140.1,91.2z"/>
		<g id="Group" transform="translate(0.000000, 219.067927)">
			<path id="Path_8_" class="st4" d="M264.7,343.7c-7.8,5.3-12,14-11.8,22.7l-13.6,9.1c0,0-9.6,4.9-23.7-11l-19.2-28.6
				c-13.3-19.8-40.1-25.1-59.9-11.8l-33.1,22.2c-10.5,11.8-6.6,19.6-6.6,19.6l9.3,13.8c8.8-0.1,17.6,4.1,22.9,12.1
				c8.3,12.4,5.2,29.2-7.1,37.4c-12.3,8.2-29,4.8-37.3-7.6c-5.3-7.9-6-17.7-2.5-25.8L72.8,382c-4.1-6.2-13.7-4.1-19.8-1.9
				l-33.9,22.7C-0.7,416.1-6,442.9,7.3,462.7l19.2,28.6c14.1,15.8,23.7,11,23.7,11l13.6-9.1c-0.2-8.8,4-17.5,11.8-22.7
				c12.3-8.2,28.9-5,37.1,7.3s5,28.9-7.3,37.1c-7.8,5.3-17.5,5.8-25.5,2.3l-13.6,9.1c-9.3,6.3,0.6,25.3,0.6,25.3l19.2,28.6
				C99.4,600,126.2,605.3,146,592l28.9-19.4c0,0,19.1-10,25.3-0.6l9.1,13.6c-3.5,8.1-2.9,17.7,2.3,25.5c8.2,12.3,24.8,15.5,37.1,7.3
				s15.5-24.8,7.3-37.1c-5.3-7.8-14-12-22.7-11.8l-9.1-13.6c0,0-4.9-9.6,11-23.7l28.2-18.9c19.8-13.3,25.1-40.1,11.8-59.9L256,424.8
				c0,0-10-19.1-0.6-25.3l13.6-9.1c8.1,3.5,17.7,2.9,25.5-2.3c12.3-8.2,15.5-24.8,7.3-37.1C293.5,338.8,276.9,335.5,264.7,343.7z"/>
			<path id="Path_9_" class="st5" d="M453.8,217.5c-7.8,5.3-12,14-11.8,22.7l-13.6,9.1c0,0-9.6,4.9-23.7-11l-19.2-28.6
				c-13.3-19.8-40.1-25.1-59.9-11.8l-33.1,22.2c-10.5,11.8-6.6,19.6-6.6,19.6l9.3,13.8c8.8-0.1,17.6,4.1,22.9,12.1
				c8.3,12.4,5.2,29.2-7.1,37.4c-12.3,8.2-29,4.8-37.3-7.6c-5.3-7.9-6-17.7-2.5-25.8l-9.3-13.8c-4.1-6.2-13.7-4.1-19.8-1.9
				l-33.9,22.7c-19.8,13.3-25.1,40.1-11.8,59.9l19.2,28.6c14.1,15.8,23.7,11,23.7,11l13.6-9.1c-0.2-8.8,4-17.5,11.8-22.7
				c12.3-8.2,28.9-5,37.1,7.3c8.2,12.3,5,28.9-7.3,37.1c-7.8,5.3-17.5,5.8-25.5,2.3l-13.6,9.1c-9.3,6.3,0.6,25.3,0.6,25.3l19.2,28.6
				c13.3,19.8,40.1,25.1,59.9,11.8l28.9-19.4c0,0,19.1-10,25.3-0.6l9.1,13.6c-3.5,8.1-2.9,17.7,2.3,25.5
				c8.2,12.3,24.8,15.5,37.1,7.3c12.3-8.2,15.5-24.8,7.3-37.1c-5.3-7.8-14-12-22.7-11.8l-9.1-13.6c0,0-4.9-9.6,11-23.7l28.2-18.9
				c19.8-13.3,25.1-40.1,11.8-59.9l-19.2-28.5c0,0-10-19.1-0.6-25.3l13.6-9.1c8.1,3.5,17.7,2.9,25.5-2.3
				c12.3-8.2,15.5-24.8,7.3-37.1C482.7,212.5,466.1,209.3,453.8,217.5z"/>
			<path id="Path_10_" class="st4" d="M326,26.9c-7.8,5.3-12,14-11.8,22.7l-13.6,9.1c0,0-9.6,4.9-23.7-11l-19.2-28.6
				C244.4-0.7,217.6-6,197.8,7.3l-33.1,22.3c-10.5,11.8-6.6,19.6-6.6,19.6l9.3,13.8c8.8-0.1,17.6,4.1,22.9,12.1
				c8.3,12.4,5.2,29.2-7.1,37.4s-29,4.8-37.3-7.6c-5.3-7.9-6-17.7-2.5-25.8l-9.3-13.8c-4.1-6.2-13.7-4.1-19.8-1.9L80.4,86.1
				C60.6,99.4,55.3,126.2,68.6,146l19.2,28.6c14.1,15.8,23.7,11,23.7,11l13.6-9.1c-0.2-8.8,4-17.5,11.8-22.7
				c12.3-8.2,28.9-5,37.1,7.3c8.2,12.3,5,28.9-7.3,37.1c-7.8,5.3-17.5,5.8-25.5,2.3l-13.6,9.1c-9.3,6.3,0.6,25.3,0.6,25.3l19.2,28.6
				c13.3,19.8,40.1,25.1,59.9,11.8l28.9-19.4c0,0,19.1-10,25.3-0.6l9.1,13.6c-3.5,8.1-2.9,17.7,2.3,25.5
				c8.2,12.3,24.8,15.5,37.1,7.3c12.3-8.2,15.5-24.8,7.3-37.1c-5.3-7.8-14-12-22.7-11.8l-9.1-13.6c0,0-4.9-9.6,11-23.7l28.2-18.9
				c19.8-13.3,25.1-40.1,11.8-59.9l-19.2-28.6c0,0-10-19.1-0.6-25.3l13.6-9.1c8.1,3.5,17.7,2.9,25.5-2.3
				c12.3-8.2,15.5-24.8,7.3-37.1C354.9,21.9,338.3,18.7,326,26.9z"/>
		</g>
	</g>
</g>
</svg>
