<?xml version="1.0" encoding="utf-8"?>
<!-- Generator: Adobe Illustrator 24.0.1, SVG Export Plug-In . SVG Version: 6.00 Build 0)  -->
<svg version="1.1" id="Layer_1" xmlns="http://www.w3.org/2000/svg" xmlns:xlink="http://www.w3.org/1999/xlink" x="0px" y="0px"
	 viewBox="0 0 835 280" style="enable-background:new 0 0 835 280;" xml:space="preserve">
<style type="text/css">
	.st0{fill:#EAEAEA;}
	.st1{fill:#DDDDDD;}
	.st2{fill:#F7F7F7;}
	.st3{fill:#FFFFFF;}
	.st4{fill:#CCCCCC;}
	.st5{fill:#E8F5FC;}
	.st6{fill:#E6F5FC;}
	.st7{fill:#D6EEFC;}
	.st8{fill:#70BEF2;}
	.st9{fill:#BDDDF4;}
	.st10{fill:#21333A;}
	.st11{fill:#0A84F2;}
	.st12{fill:#FBB040;}
	.st13{fill:#100F28;}
	.st14{fill:#ED8B00;}
	.st15{fill:#4BFF2A;}
	.st16{fill:#FFAA82;}
	.st17{fill:#FFB285;}
	.st18{fill:#013159;}
	.st19{fill:#A52A2A;}
	.st20{fill:#005EB8;}
	.st21{fill:none;stroke:#FFFFFF;stroke-width:3.5;stroke-linejoin:round;stroke-miterlimit:10;}
	.st22{fill:none;}
	.st23{fill:#FF95A9;}
	.st24{fill:#D36705;}
	.st25{fill:#E57505;}
	.st26{fill:#02355E;}
	.st27{fill:#606060;}
	.st28{fill:#7760DB;}
	.st29{fill:#E5F2F9;}
	.st30{fill:none;stroke:#EFEFEF;stroke-width:3.5;stroke-linejoin:round;stroke-miterlimit:10;}
	.st31{fill:none;stroke:#EFEFEF;stroke-width:3.5;stroke-linecap:round;stroke-linejoin:round;stroke-miterlimit:10;}
	.st32{fill:none;stroke:#BBEAFF;stroke-width:3.5;stroke-linejoin:round;stroke-miterlimit:10;}
	.st33{fill:#95C8EC;}
</style>
<g>
	<g>
		<path class="st0" d="M246.5,92.8c0,0,14.9-3.8,16.9,11.2s-0.9,18.4-0.2,23.5c0.6,5.1-12.1,6.9-16.7,3.6
			C241.9,127.8,241.1,99.4,246.5,92.8z"/>
		<g>
			<path class="st0" d="M237.2,213.5L237.2,213.5c0.8-0.2,1.3-1.1,1-1.8l-12.5-33.9l-3.2,0.4l12.7,34.4
				C235.5,213.3,236.4,213.7,237.2,213.5z"/>
			<path class="st0" d="M224.9,183.6h33.9c2.4,0,4.4-2,4.4-4.4l0,0c0-2.4-2-4.4-4.4-4.4h-33.9c-2.4,0-4.4,2-4.4,4.4l0,0
				C220.5,181.7,222.5,183.6,224.9,183.6z"/>
			<path class="st0" d="M255.4,179.2h-3.3l12.3,33.3c0.3,0.7,1.2,1.1,2,0.9c0.8-0.2,1.3-1.1,1-1.8L255.4,179.2z"/>
			<path class="st0" d="M253.6,179.2l-12,32.4c-0.3,0.7,0.2,1.5,1,1.8s1.7-0.2,2-0.9l12.3-33.3L253.6,179.2L253.6,179.2z"/>
			<path class="st0" d="M226.3,179.2l-12,32.4c-0.3,0.7,0.2,1.5,1,1.8c0.8,0.2,1.7-0.2,2-0.9l12.3-33.3L226.3,179.2L226.3,179.2z"/>
		</g>
		<polygon class="st1" points="234.2,176 267.3,173.2 279.9,129.8 245.7,129.8 		"/>
		<path class="st2" d="M250.7,174.2L250.7,174.2c-14,0.8-18-2.4-16.5-10.3l1.2-5.5l27.9,0.6l-0.7,3.4
			C261.2,170.2,258.6,174.2,250.7,174.2z"/>
		<path class="st0" d="M268.3,158.3c7-26.4,11-28.8,11-28.8c1.4,0,2.4,1.3,2,2.7l-11,40.1c-1,3.8-4.4,6.4-8.3,6.4h-0.8h-14.9
			c-5.2-0.1-3.9-5.7,1.3-5.6C255.3,173.1,265.8,171.1,268.3,158.3z"/>
		
			<ellipse transform="matrix(0.9976 -6.935129e-02 6.935129e-02 0.9976 -6.6098 17.6092)" class="st0" cx="250.3" cy="104" rx="10.5" ry="9.1"/>
		<path class="st2" d="M253.8,105c-0.4,0.2-0.9,0.3-1.3,0.5l-0.2-2.4c-0.2-2.5-2.3-4.3-4.8-4.2L246,99c-2.5,0.2-4.3,2.3-4.2,4.8
			l0.4,5.6c0.2,2.5,2.3,4.3,4.8,4.2l0,0c1.2-0.1,2.3,0.8,2.4,2c0.1,1.6,0.2,3.3,0.3,4.9c2-0.4,4-0.6,6-0.6
			C254.6,115.1,253.9,110,253.8,105z"/>
		<path class="st0" d="M243.2,100.5c-2.3-1.3-2.7-4.4-0.9-6.2c0.1-0.1,0.3-0.2,0.4-0.3c1.6-1.2,3.8-1.5,5.9-1.5c3,0,6.2,0.6,8.2,2.8
			c0.8,0.8,1.3,1.9,1.7,3c0.4,1.2,0.7,2.6,0.3,3.8c-0.5,1.7-2.3,3-4.1,3c-0.8,0-1.6,0.6-2.4,0.3c-1.2-0.3-2.5-1.4-3.7-1.9
			C247.3,102.8,244.9,101.5,243.2,100.5z"/>
		<path class="st0" d="M256.7,118.2c-2.7,0.1-5.5,0.2-8.2,0.2c-2.1,0.1-4.1,0.1-6.2,0.7c-2.1,0.5-4.2,1.6-5.6,3.3
			c-1,1.2-1.6,2.6-2,4c-0.8,2.4-1.4,4.7-1.8,7.1l0.4,4.2l8.6-5.6c0,0-5,18.5-6.6,26.8c2.9,0.3,7,0.4,10.5,0.4l0,0
			c3.7,0.1,13.9-0.1,17.7-0.5c2.3-8.3,4.5-23.6,4.5-23.6S272,118.2,256.7,118.2z"/>
		<path class="st2" d="M248.4,118.4c0,0-0.8,5.9,2.5,5.9s6.8-5.9,6.8-5.9l-4.4-1.2L248.4,118.4z"/>
		<path class="st2" d="M256.4,106.8c0.1,1.6-0.8,2.9-1.9,3c-1.2,0.1-2.2-1.1-2.3-2.7s0.8-2.9,1.9-3
			C255.2,104.1,256.3,105.3,256.4,106.8z"/>
		<path class="st0" d="M214.4,178.9h29.5c1.5,0,2.6-1.2,2.6-2.6l0,0c0-1.5-1.2-2.6-2.6-2.6h-29.5c-1.5,0-2.6,1.2-2.6,2.6l0,0
			C211.7,177.8,212.9,178.9,214.4,178.9z"/>
		<path class="st0" d="M229.1,206.8l4.7-0.1l0.8,3.5c0.1,0.6,0.1,1.3-0.3,1.8c-0.3,0.3-0.6,0.6-1,0.6l-11.7,0.1
			c-1.1,0-2.1-3.4,1.6-4.4C223.2,208.3,227.6,206.9,229.1,206.8z"/>
		<path class="st0" d="M215,206.8l4.7-0.1l0.8,3.5c0.1,0.6,0.1,1.3-0.3,1.8c-0.3,0.3-0.6,0.6-1,0.6l-11.7,0.1
			c-1.1,0-2.1-3.4,1.6-4.4C209.1,208.3,213.5,206.9,215,206.8z"/>
		<path class="st2" d="M214.3,206.8l-0.5-30.1c-0.1-7.1,4.6-10.7,14.2-12.3l9.7-1.8l5.4,10.9l-16.4,0.6c-2.4,0.2-4.1,1.9-4.3,4
			l-2.6,28.6h-5.5V206.8z"/>
		<path class="st2" d="M250.4,162.4l-13.8,7.5c-4.9,2.7-7.9,6.5-8.4,11V207l5.6-0.2l1.7-22.5c1.2-4,5.7-6.6,10.7-8.9l4.1-1.4
			c5.2-1.7,5.7-8,0.9-11.1L250.4,162.4z"/>
		<polygon class="st2" points="235,124.7 230.2,141.1 214.5,143.4 217,146.9 236.5,146.7 244.1,128.1 		"/>
		<path class="st0" d="M235,124.7l-4.8,16.4l-4,0.6c0.2,0.7,0.5,1.4,0.6,2.1c0.4,1,0.9,2,1.4,3l8.3-0.1l7.6-18.5L235,124.7z"/>
		<polygon class="st2" points="255.2,128.5 249.9,140.7 229.8,145.1 236.8,146.5 256.3,146.2 261.9,132.5 		"/>
		<path class="st0" d="M255.2,128.5l-5.2,12.2l-5.6,0.8c0.8,1.5,1.6,3,2.4,4.5c0.1,0.1,0.2,0.2,0.3,0.3l9.2-0.1l5.7-13.7
			L255.2,128.5z"/>
		<g>
			<path class="st1" d="M240.4,147.4h-31.1c-0.7,0-1.3-0.6-1.3-1.3l0,0c0-0.7,0.6-1.3,1.3-1.3h31.1c0.7,0,1.3,0.6,1.3,1.3l0,0
				C241.7,146.8,241.1,147.4,240.4,147.4z"/>
			<path class="st0" d="M229.3,147.4h-26.8c-1.3,0-2.6-1-2.9-2.3l-5-18.4c-0.3-1.3,0.4-2.3,1.7-2.3H223c1.3,0,2.6,1,2.9,2.3l5,18.4
				C231.4,146.4,230.6,147.4,229.3,147.4z"/>
			<path class="st1" d="M228.1,147.4h-26.8c-1.3,0-2.6-1-2.9-2.3l-5-18.4c-0.3-1.3,0.4-2.3,1.7-2.3h26.8c1.3,0,2.6,1,2.9,2.3l5,18.4
				C230.1,146.4,229.4,147.4,228.1,147.4z"/>
			<path class="st0" d="M212.7,138.1H210c-1.2,0-2.4-1-2.8-2.2l0,0c-0.3-1.2,0.4-2.2,1.6-2.2h2.7c1.2,0,2.4,1,2.8,2.2l0,0
				C214.6,137.1,213.9,138.1,212.7,138.1z"/>
		</g>
	</g>
	<g>
		<path class="st0" d="M196.1,211.6L196.1,211.6c-0.8-0.2-1.2-1-1-1.7l22.2-60.2c0.3-0.7,1.1-1.1,1.9-0.9l0,0c0.8,0.2,1.2,1,1,1.7
			L198,210.7C197.8,211.4,196.9,211.8,196.1,211.6z"/>
		<path class="st0" d="M241.3,211.6L241.3,211.6c0.8-0.2,1.2-1,1-1.7L220,149.6c-0.3-0.7-1.1-1.1-1.9-0.9l0,0c-0.8,0.2-1.2,1-1,1.7
			l22.2,60.2C239.6,211.4,240.5,211.8,241.3,211.6z"/>
		<path class="st0" d="M290.1,211.6L290.1,211.6c-0.8-0.2-1.2-1-1-1.7l22.2-60.2c0.3-0.7,1.1-1.1,1.9-0.9l0,0c0.8,0.2,1.2,1,1,1.7
			L292,210.7C291.7,211.4,290.8,211.8,290.1,211.6z"/>
		<path class="st0" d="M335.2,211.6L335.2,211.6c0.8-0.2,1.2-1,1-1.7L314,149.7c-0.3-0.7-1.1-1.1-1.9-0.9l0,0c-0.8,0.2-1.2,1-1,1.7
			l22.2,60.2C333.6,211.4,334.4,211.8,335.2,211.6z"/>
	</g>
	<path class="st2" d="M333.5,152.7H197.9c-1.4,0-2.6-1.2-2.6-2.6l0,0c0-1.4,1.2-2.6,2.6-2.6h135.6c1.4,0,2.6,1.2,2.6,2.6l0,0
		C336,151.5,334.9,152.7,333.5,152.7z"/>
</g>
<g id="color_palette">
</g>
<g>
	<g>
		<g>
			<path class="st1" d="M3.2,248L3.2,248c-0.8-0.2-1.2-1-1-1.8L25,184.8c0.3-0.7,1.1-1.1,1.9-0.9l0,0c0.8,0.2,1.2,1,1,1.8L5.2,247.2
				C4.9,247.9,4,248.3,3.2,248z"/>
			<path class="st1" d="M49.3,248L49.3,248c0.8-0.2,1.2-1,1-1.8l-22.7-61.5c-0.3-0.7-1.1-1.1-1.9-0.9l0,0c-0.8,0.2-1.2,1-1,1.8
				l22.7,61.5C47.7,247.9,48.5,248.3,49.3,248z"/>
			<path class="st1" d="M99.1,248L99.1,248c-0.8-0.2-1.2-1-1-1.8l22.7-61.5c0.3-0.7,1.1-1.1,1.9-0.9l0,0c0.8,0.2,1.2,1,1,1.8
				L101,247.1C100.8,247.9,99.9,248.3,99.1,248z"/>
			<path class="st1" d="M145.2,248L145.2,248c0.8-0.2,1.2-1,1-1.8l-22.7-61.5c-0.3-0.7-1.1-1.1-1.9-0.9l0,0c-0.8,0.2-1.2,1-1,1.8
				l22.7,61.5C143.6,247.9,144.4,248.3,145.2,248z"/>
			<path class="st0" d="M135.3,187.4H13.8c-1.3,0-2.3-1-2.3-2.3l0,0c0-1.3,1-2.3,2.3-2.3h121.5c1.3,0,2.3,1,2.3,2.3l0,0
				C137.7,186.4,136.6,187.4,135.3,187.4z"/>
		</g>
		<g>
			<path class="st0" d="M76.1,243.7l-4.9-0.1l-0.8,3.6c-0.2,0.6-0.1,1.4,0.3,1.8c0.3,0.4,0.6,0.6,1.1,0.6l12.1,0.1
				c1.2,0,2.1-3.5-1.7-4.6C82.3,245.2,77.7,243.7,76.1,243.7z"/>
			<path class="st2" d="M75.7,165.9L75.7,165.9c-1.4-0.8-3.3-0.3-4.1,1.1l-2.4,4.2c-0.8,1.4-0.3,3.3,1.1,4.1l0,0
				c1.4,0.8,3.3,0.3,4.1-1.1l2.4-4.2C77.6,168.6,77.1,166.7,75.7,165.9z"/>
			<g>
				<path class="st1" d="M55.1,183.4h31.8c0.7,0,1.4-0.6,1.4-1.4l0,0c0-0.7-0.6-1.4-1.4-1.4H55.1c-0.7,0-1.4,0.6-1.4,1.4l0,0
					C53.8,182.7,54.4,183.4,55.1,183.4z"/>
				<path class="st1" d="M67.7,183.4H95c1.3,0,2.6-1.1,3-2.4l5.2-18.8c0.4-1.3-0.4-2.4-1.7-2.4H74.1c-1.3,0-2.6,1.1-3,2.4L65.9,181
					C65.6,182.3,66.4,183.4,67.7,183.4z"/>
				<polygon class="st3" points="68.1,179.3 96,179.3 101.1,161.4 73.1,161.4 				"/>
			</g>
			<path class="st2" d="M36.4,210.7L36.4,210.7c14.3,0.8,18.4-4.1,16.8-12.1l-0.7-3.5H23.4l0.7,3.5
				C25.7,206.7,28.3,210.7,36.4,210.7z"/>
			<path class="st2" d="M85.7,179.2L85.7,179.2c0.1-1.7-1.1-3.1-2.7-3.3l-4.8-0.4c-1.6-0.1-3.1,1.1-3.3,2.8l0,0
				c-0.1,1.7,1.1,3.1,2.7,3.3l4.8,0.4C84.1,182,85.6,180.8,85.7,179.2z"/>
			<path class="st0" d="M48.4,136.8v-0.6c0-1.5,1.2-2.7,2.7-2.7h2.2c1.5,0,2.7,1.2,2.7,2.7v0.6c0,1.5-1.2,2.7-2.7,2.7h-2.2
				C49.6,139.5,48.4,138.3,48.4,136.8z M51.1,134.3c-1.1,0-1.9,0.9-1.9,1.9v0.6c0,1.1,0.9,1.9,1.9,1.9h2.2c1.1,0,1.9-0.9,1.9-1.9
				v-0.6c0-1.1-0.9-1.9-1.9-1.9H51.1z"/>
			<path class="st2" d="M39.3,136.4c0.5,0.2,1,0.4,1.5,0.5l0.1-2.7c0.1-2.8,2.5-4.9,5.3-4.8l1.7,0.1c2.8,0.1,4.9,2.5,4.8,5.3
				l-0.3,6.3c-0.1,2.8-2.5,4.9-5.3,4.8l0,0c-1.4-0.1-2,0.5-2.7,2.4c-0.7,1.7-0.7,3.3-0.7,5.2c-2.2-0.4-5.1-0.9-7.3-0.8
				C37.4,147.1,39.3,142,39.3,136.4z"/>
			<path class="st0" d="M50.8,134.1c4.7-4.4-1.8-9.9-8.7-8.6c-4.1,0.8-7.8,1.7-9.2,6.3c-0.4,1.4-0.3,1.3-0.5,2.8
				c-0.4,4,1.7,6.2,2.6,7.7c3.4,6.1,9.7,3.8,10.9,2C46.9,143.1,49.2,135.6,50.8,134.1z"/>
			<path class="st1" d="M31.4,150.8c3.1-0.3,5.6-0.2,8.7-0.3c3.1,0.1,6.2,0.2,9.3,0.3c2.3,0.1,6.6,0,7.7,3.4c0.7,2-1.9,9.6-1.9,9.6
				s-1.6,25.7-2,34.6c-3.3,0.3-24-0.1-28.2-0.5c-0.3-6.5-3.3-27.3-2.9-34.2C22.6,154.2,28.8,151.1,31.4,150.8z"/>
			<path class="st2" d="M45.5,150.7c0,0-2.3,1.4-5.8,1.4s-3.9-1.4-3.9-1.4l4.8-1.3L45.5,150.7z"/>
			
				<ellipse transform="matrix(5.204213e-02 -0.9986 0.9986 5.204213e-02 -92.9714 178.9873)" class="st2" cx="47.8" cy="138.5" rx="3.2" ry="2.4"/>
			<path class="st2" d="M56.4,158.7l3.9,9c0.9,2.1,3.1,7,4.1,8.4l13.2-0.3l2.4,3.5L63.7,183c-2.2,0.4-4.6-0.8-6.1-3.1c0,0,0,0,0-0.1
				L50,160.9L56.4,158.7z"/>
			<polygon class="st1" points="46.6,159.6 56,176.5 64.1,173.1 57.1,154.2 			"/>
			<path class="st0" d="M54.9,136.5H44.2c-0.3,0-0.6-0.3-0.6-0.6l0,0c0-0.3,0.3-0.6,0.6-0.6h10.7c0.3,0,0.6,0.3,0.6,0.6l0,0
				C55.5,136.2,55.2,136.5,54.9,136.5z"/>
			<path class="st0" d="M57.4,244.1l-4.8-0.1l-0.8,3.5c-0.1,0.6-0.1,1.3,0.3,1.8c0.3,0.3,0.6,0.6,1,0.6l12,0.1
				c1.2,0,2.1-3.4-1.6-4.5C63.4,245.6,58.9,244.1,57.4,244.1z"/>
			<path class="st2" d="M76.8,244l0.6-30.7c0.1-7.2-4.7-10.9-14.5-12.5L53,199l-4.7,12.5h16.3c2.4,0.3,3.9,1.2,4.1,3.3L68.1,244
				H76.8z"/>
			<path class="st2" d="M35.6,198.7l14.1,7.7c5,2.7,8,6.7,8.6,11.2v26.7l-7.4-0.2v-23C49.7,217,45,214.3,40,212l-4.2-1.4
				c-5.3-1.8-5.8-8.1-0.9-11.4L35.6,198.7z"/>
			<g>
				<path class="st1" d="M45.1,250.9L45.1,250.9c-0.8-0.3-1.3-1.1-1-1.8l12.8-34.7l3.2,0.4l-13,35.2C46.9,250.7,46,251.1,45.1,250.9
					z"/>
				<path class="st1" d="M57.8,220.3H23.1c-2.5,0-4.5-2-4.5-4.5l0,0c0-2.5,2-4.5,4.5-4.5h34.7c2.5,0,4.5,2,4.5,4.5l0,0
					C62.2,218.3,60.2,220.3,57.8,220.3z"/>
				<path class="st1" d="M26.6,215.9H30L17.4,250c-0.3,0.8-1.2,1.2-2,0.9c-0.8-0.3-1.3-1.1-1-1.8L26.6,215.9z"/>
				<path class="st1" d="M28.4,215.9L40.6,249c0.3,0.8-0.2,1.6-1,1.8c-0.8,0.3-1.7-0.2-2-0.9l-12.6-34L28.4,215.9L28.4,215.9z"/>
				<path class="st1" d="M56.3,215.9L68.5,249c0.3,0.8-0.2,1.6-1,1.8c-0.8,0.3-1.7-0.2-2-0.9l-12.6-34.1L56.3,215.9L56.3,215.9z"/>
			</g>
			<g>
				<g>
					<path class="st0" d="M13.4,196.1c-7.2-27-11.2-29.4-11.2-29.4c-1.4,0-2.5,1.4-2.1,2.7l11.3,41c1.1,3.8,4.5,6.5,8.5,6.5h0.9
						h22.8l0.4-3.5C43.2,207.7,17.6,217.8,13.4,196.1z"/>
					<path class="st0" d="M68.5,216.9H38.4c-1.5,0-2.7-1.2-2.7-2.7l0,0c0-1.5,1.2-2.7,2.7-2.7h30.1c1.5,0,2.7,1.2,2.7,2.7l0,0
						C71.2,215.7,70,216.9,68.5,216.9z"/>
					<path class="st0" d="M48.2,213.9L14.4,211l-13-44.4H26c6.1,0,11.5,4.2,13,10.1L48.2,213.9z"/>
				</g>
			</g>
		</g>
	</g>
	<g>
		<g>
			<path class="st1" d="M776.1,142.8L776.1,142.8c-3.5,1.1-7.2-0.9-8.2-4.4l-1.1-3.6c-1.1-3.5,0.9-7.2,4.4-8.2l0,0
				c3.5-1.1,7.2,0.9,8.2,4.4l1.1,3.6C781.5,138,779.5,141.8,776.1,142.8z"/>
			<g>
				<path class="st1" d="M763.8,280.8L763.8,280.8c1.1-0.3,1.6-1.4,1.3-2.3l-16.3-44l-4.1,0.5l16.5,44.7
					C761.6,280.5,762.8,281.1,763.8,280.8z"/>
				<path class="st1" d="M747.8,242h44c3.1,0,5.7-2.5,5.7-5.7l0,0c0-3.1-2.5-5.7-5.7-5.7h-44c-3.1,0-5.7,2.5-5.7,5.7l0,0
					C742.1,239.5,744.7,242,747.8,242z"/>
				<path class="st1" d="M787.4,236.3h-4.3l16,43.3c0.4,1,1.5,1.5,2.6,1.2s1.6-1.4,1.3-2.3L787.4,236.3z"/>
				<path class="st1" d="M785.1,236.3l-15.5,42.1c-0.4,1,0.2,2,1.3,2.3s2.2-0.2,2.6-1.2l16-43.3h-4.4L785.1,236.3L785.1,236.3z"/>
				<path class="st1" d="M749.7,236.3l-15.5,42.1c-0.4,1,0.2,2,1.3,2.3s2.2-0.2,2.6-1.2l16-43.3h-4.4L749.7,236.3L749.7,236.3z"/>
			</g>
			<polygon class="st4" points="760,232.2 802.8,228.5 819.3,172.1 774.8,172.1 			"/>
			<path class="st0" d="M781.4,229.8L781.4,229.8c-18.2,1-23.4-3.2-21.4-13.3l1.6-7.1l36.2,0.7l-0.9,4.4
				C795,224.6,791.6,229.8,781.4,229.8z"/>
			<path class="st1" d="M804.2,209.5c9.1-34.3,14.3-37.4,14.3-37.4c1.8,0,3.1,1.7,2.7,3.5l-14.3,52c-1.3,4.9-5.8,8.3-10.8,8.3H795
				h-19.3c-6.7-0.1-5-7.4,1.7-7.3C787.4,228.7,801,226.2,804.2,209.5z"/>
			<polygon class="st2" points="761,173 754.5,188.2 735,191 738.1,195.4 762.3,195 769.4,178 			"/>
			<path class="st1" d="M789.1,157.1c-3.6,0.1-7.1,0.2-10.7,0.3c-2.7,0.1-5.4,0.2-8.1,0.9c-2.7,0.7-5.5,2.1-7.3,4.3
				c-1.3,1.6-2,3.4-2.6,5.2c-1,3.1-1.8,6.2-2.3,9.2l0.6,5.5l11.2-7.3c0,0-6.5,24.1-8.6,34.8c3.7,0.4,9.1,0.5,13.6,0.5l0,0
				c4.8,0.1,18-0.1,22.9-0.6c3-10.8,5.9-30.7,5.9-30.7S808.9,157.1,789.1,157.1z"/>
			<path class="st2" d="M778.4,157.3c0,0-1.1,7.7,3.3,7.7s8.8-7.7,8.8-7.7l-5.7-1.5L778.4,157.3z"/>
			
				<ellipse transform="matrix(0.9976 -6.935032e-02 6.935032e-02 0.9976 -7.9901 54.8529)" class="st2" cx="786" cy="142.5" rx="2.8" ry="3.7"/>
			<path class="st1" d="M734.2,235.9h38.2c1.9,0,3.4-1.5,3.4-3.4l0,0c0-1.9-1.5-3.4-3.4-3.4h-38.2c-1.9,0-3.4,1.5-3.4,3.4l0,0
				C730.8,234.4,732.3,235.9,734.2,235.9z"/>
			<path class="st1" d="M753.3,272.2l6.1-0.1l1.1,4.5c0.2,0.8,0.1,1.7-0.4,2.3c-0.3,0.4-0.8,0.7-1.3,0.7l-15.2,0.2
				c-1.5,0-2.7-4.4,2.1-5.7C745.6,274.1,751.4,272.2,753.3,272.2z"/>
			<path class="st1" d="M735,272.2l6.1-0.1l1.1,4.5c0.2,0.8,0.1,1.7-0.4,2.3c-0.3,0.4-0.8,0.7-1.3,0.7l-15.2,0.2
				c-1.5,0-2.7-4.4,2.1-5.7C727.3,274.1,733.1,272.2,735,272.2z"/>
			<path class="st0" d="M734,272.1l-0.7-39c-0.1-9.2,6-13.9,18.4-15.9l12.5-2.3l7.1,14.2l-21.3,0.7c-3.1,0.3-5.4,2.4-5.6,5.2
				l-3.3,37.1H734z"/>
			<polygon class="st1" points="761.6,165 753.2,182.4 767.4,184.9 771.5,170.5 			"/>
			<polygon class="st2" points="786.7,173 780.2,188.2 760.7,191 763.8,195.4 788,195 795.1,178 			"/>
			<g>
				<path class="st4" d="M767.9,195h-40.3c-1,0-1.7-0.8-1.7-1.7l0,0c0-1,0.8-1.7,1.7-1.7h40.3c1,0,1.7,0.8,1.7,1.7l0,0
					C769.6,194.3,768.9,195,767.9,195z"/>
				<path class="st1" d="M753.6,195h-34.8c-1.6,0-3.4-1.3-3.8-3l-6.5-23.9c-0.5-1.6,0.5-3,2.2-3h34.8c1.6,0,3.4,1.3,3.8,3l6.5,23.9
					C756.2,193.7,755.2,195,753.6,195z"/>
				<path class="st4" d="M752,195h-34.8c-1.6,0-3.4-1.3-3.8-3l-6.5-23.9c-0.5-1.6,0.5-3,2.2-3h34.8c1.6,0,3.4,1.3,3.8,3l6.5,23.9
					C754.6,193.7,753.6,195,752,195z"/>
				<path class="st1" d="M732.1,182.9h-3.5c-1.6,0-3.2-1.3-3.6-2.8l0,0c-0.4-1.6,0.5-2.8,2-2.8h3.5c1.6,0,3.2,1.3,3.6,2.8l0,0
					C734.5,181.7,733.6,182.9,732.1,182.9z"/>
			</g>
			<path class="st0" d="M781,214.5l-18,9.7c-6.4,3.5-10.2,8.5-10.9,14.2v33.9l7.3-0.2l2.2-29.3c1.6-5.2,7.4-8.6,13.9-11.6l5.3-1.8
				c6.7-2.3,7.3-10.3,1.1-14.5L781,214.5z"/>
			<path class="st1" d="M787.6,145.4c0,0,7.6-8.2,5-16.6s-17.3-9.5-18.8-2.1c-1,4.8,3.2,6,6.3,6.3c3.4,0.3,6.1,3,6.5,6.4v0.1
				L787.6,145.4z"/>
			<path class="st1" d="M777.5,121.9h-8.7c-1.3,0-2.4,1.2-2,2.6c0.8,3.3,3,8.8,9.5,9.5C783.1,134.6,777.5,121.9,777.5,121.9z"/>
			<path class="st2" d="M785.3,139.9c-0.6,0.2-1.1,0.4-1.7,0.7l-0.2-3.1c-0.2-3.2-3-5.6-6.2-5.4l-1.9,0.1c-3.2,0.2-5.6,3-5.4,6.2
				l0.5,7.3c0.2,3.2,3,5.6,6.2,5.4l0,0c1.6-0.1,2.9,1,3.1,2.6c0.2,2.1,0.3,4.3,0.4,6.4c2.6-0.5,5.2-0.8,7.8-0.7
				C786.4,153,785.5,146.5,785.3,139.9z"/>
			<path class="st1" d="M787.7,127.6H779c-1.3,0-2.4,1.2-2,2.6c0.8,3.3,3,8.8,9.5,9.5C793.2,140.4,787.7,127.6,787.7,127.6z"/>
		</g>
		<g>
			<path class="st1" d="M696.1,278.7L696.1,278.7c-1-0.3-1.6-1.3-1.2-2.2l28.9-78.4c0.3-0.9,1.5-1.4,2.5-1.1l0,0
				c1,0.3,1.6,1.3,1.2,2.2l-28.9,78.4C698.3,278.5,697.2,279,696.1,278.7z"/>
			<path class="st1" d="M754.9,278.7L754.9,278.7c1-0.3,1.6-1.3,1.2-2.2l-28.9-78.4c-0.3-0.9-1.5-1.4-2.5-1.1l0,0
				c-1,0.3-1.6,1.3-1.2,2.2l28.9,78.4C752.8,278.5,753.9,279,754.9,278.7z"/>
		</g>
		<g>
			<path class="st0" d="M698.4,195.3c-1.9,0-3.4,1.5-3.4,3.4s1.5,3.4,3.4,3.4h136.8v-6.7L698.4,195.3L698.4,195.3z"/>
		</g>
	</g>
</g>
<g>
	<path class="st2" d="M504.8,106.9c0-3.9-3.2-7.1-7.1-7.1h-7.3c-3.9,0-7.1,3.2-7.1,7.1v49.2c0,3.9,3.2,7.1,7.1,7.1h7.3
		c3.9,0,7.1-3.2,7.1-7.1V106.9z"/>
	<path class="st2" d="M473.2,124.1c0-4.2-3.4-7.6-7.6-7.6h-6.3c-4.2,0-7.6,3.4-7.6,7.6v31.5c0,4.2,3.4,7.6,7.6,7.6h6.3
		c4.2,0,7.6-3.4,7.6-7.6V124.1z"/>
	<path class="st2" d="M536,88.1c0-3.9-3.2-7.1-7.1-7.1h-7.3c-3.9,0-7.1,3.2-7.1,7.1V156c0,3.9,3.2,7.1,7.1,7.1h7.3
		c3.9,0,7.1-3.2,7.1-7.1V88.1z"/>
	<path class="st2" d="M575.3,61.1l-13.8-17.7c-1.2-1.5-2.9-2.4-4.6-2.4s-3.4,0.9-4.6,2.4l-13.8,17.7c-1.2,1.5-1.5,3.2-0.8,4.6
		c0.7,1.5,2.5,2.4,4.7,2.4h3.7v88.3c0,3.9,3.2,6.9,7.1,6.9h7.4c3.9,0,7-3,7-6.9V68l3.7,0.1c2.2,0,4-0.9,4.7-2.4
		C576.7,64.2,576.5,62.6,575.3,61.1z"/>
</g>
<g>
	<path class="st5" d="M609.3,91.2c0-5.4-4.4-9.8-9.8-9.8h-10.2c-5.4,0-9.8,4.4-9.8,9.8v68c0,5.4,4.4,9.8,9.8,9.8h10.2
		c5.4,0,9.8-4.4,9.8-9.8V91.2z"/>
	<path class="st6" d="M652.4,65.2c0-5.4-4.4-9.8-9.8-9.8h-10.2c-5.4,0-9.8,4.4-9.8,9.8v94c0,5.4,4.4,9.8,9.8,9.8h10.2
		c5.4,0,9.8-4.4,9.8-9.8V65.2z"/>
	<path class="st7" d="M706.8,27.7l-19-24.4c-1.6-2.1-4-3.3-6.4-3.3s-4.8,1.2-6.4,3.3l-19,24.4c-1.6,2.1-2,4.4-1.1,6.3
		c1,2.1,3.5,3.3,6.5,3.3h5.1v122.1c0,5.4,4.4,9.5,9.8,9.5h10.2c5.4,0,9.7-4.1,9.7-9.5V37.3l5.2,0.1c3.1,0,5.5-1.2,6.6-3.3
		C708.8,32.1,708.5,29.8,706.8,27.7z"/>
</g>
<g>
	<path class="st8" d="M398.4,139.5L398.4,139.5c-0.9-0.3-1.9,0.2-2.2,1l-14.7,39.7v0.1l-25.3,68.6c-0.3,0.8,0.2,1.7,1.1,2
		s1.9-0.2,2.2-1l14.7-39.7v-0.1l25.3-68.6C399.8,140.7,399.3,139.8,398.4,139.5z"/>
	<path class="st8" d="M377.5,139.5L377.5,139.5c0.9-0.3,1.9,0.2,2.2,1l14.7,39.7v0.1l25.3,68.6c0.3,0.8-0.2,1.7-1.1,2
		s-1.9-0.2-2.2-1l-14.7-39.7v-0.1l-25.3-68.6C376.1,140.7,376.6,139.8,377.5,139.5z"/>
	<rect x="329.1" y="34" class="st9" width="115.9" height="124.9"/>
	<rect x="341.9" y="36.1" class="st7" width="92.1" height="133.1"/>
	<path class="st8" d="M449.6,39.1H324.5c-2,0-3.7-1.7-3.7-3.7l0,0c0-2,1.7-3.7,3.7-3.7h125.1c2,0,3.7,1.7,3.7,3.7l0,0
		C453.3,37.4,451.6,39.1,449.6,39.1z"/>
	<g>
		<path class="st3" d="M379.3,119.1h-24.9c-1.7,0-3.1-1.4-3.1-3.1v-9.6c0-1.7,1.4-3.1,3.1-3.1h24.9c1.7,0,3.1,1.4,3.1,3.1v9.6
			C382.4,117.7,381,119.1,379.3,119.1z"/>
		<path class="st10" d="M366.9,109.6h-11.2c-0.6,0-1.2-0.5-1.2-1.2v-0.1c0-0.6,0.5-1.2,1.2-1.2h11.2c0.6,0,1.2,0.5,1.2,1.2v0.1
			C368.1,109,367.6,109.6,366.9,109.6z"/>
		<path class="st10" d="M377.4,109.6h-11.2c-0.6,0-1.2-0.5-1.2-1.2v-0.1c0-0.6,0.5-1.2,1.2-1.2h11.2c0.6,0,1.2,0.5,1.2,1.2v0.1
			C378.6,109,378,109.6,377.4,109.6z"/>
		<path class="st10" d="M361.3,115.3h-5.6c-0.6,0-1.2-0.5-1.2-1.2V114c0-0.6,0.5-1.2,1.2-1.2h5.6c0.6,0,1.2,0.5,1.2,1.2v0.1
			C362.5,114.7,362,115.3,361.3,115.3z"/>
	</g>
	<g>
		<path class="st3" d="M422.6,90.1h-69.3c-1.8,0-3.4-1.5-3.4-3.4v-33c0-1.8,1.5-3.4,3.4-3.4h69.3c1.8,0,3.4,1.5,3.4,3.4v33.1
			C426,88.6,424.5,90.1,422.6,90.1z"/>
		<path class="st7" d="M360,86.3L360,86.3c-0.3,0-0.5-0.2-0.5-0.5V56.6c0-0.3,0.2-0.5,0.5-0.5l0,0c0.3,0,0.5,0.2,0.5,0.5v29.3
			C360.4,86.1,360.2,86.3,360,86.3z"/>
		<path class="st7" d="M371.2,86.3L371.2,86.3c-0.3,0-0.5-0.2-0.5-0.5V56.6c0-0.3,0.2-0.5,0.5-0.5l0,0c0.3,0,0.5,0.2,0.5,0.5v29.3
			C371.6,86.1,371.4,86.3,371.2,86.3z"/>
		<path class="st7" d="M382.4,86.3L382.4,86.3c-0.3,0-0.5-0.2-0.5-0.5V56.6c0-0.3,0.2-0.5,0.5-0.5l0,0c0.3,0,0.5,0.2,0.5,0.5v29.3
			C382.8,86.1,382.6,86.3,382.4,86.3z"/>
		<path class="st7" d="M393.6,86.3L393.6,86.3c-0.3,0-0.5-0.2-0.5-0.5V56.6c0-0.3,0.2-0.5,0.5-0.5l0,0c0.3,0,0.5,0.2,0.5,0.5v29.3
			C394,86.1,393.8,86.3,393.6,86.3z"/>
		<path class="st7" d="M404.7,86.3L404.7,86.3c-0.3,0-0.5-0.2-0.5-0.5V56.6c0-0.3,0.2-0.5,0.5-0.5l0,0c0.3,0,0.5,0.2,0.5,0.5v29.3
			C405.2,86.1,405,86.3,404.7,86.3z"/>
		<path class="st7" d="M359.5,85.9L359.5,85.9c0-0.3,0.2-0.5,0.5-0.5h56c0.3,0,0.5,0.2,0.5,0.5l0,0c0,0.3-0.2,0.5-0.5,0.5h-56
			C359.7,86.3,359.5,86.1,359.5,85.9z"/>
		<path class="st7" d="M415.9,86.3L415.9,86.3c-0.3,0-0.5-0.2-0.5-0.5V56.6c0-0.3,0.2-0.5,0.5-0.5l0,0c0.3,0,0.5,0.2,0.5,0.5v29.3
			C416.4,86.1,416.2,86.3,415.9,86.3z"/>
		<g>
			<path class="st10" d="M357.6,79.1c-0.1,0-0.2,0-0.2,0c-0.4-0.1-0.6-0.5-0.4-0.9c0-0.1,3.3-9.5,12.6-7.5c1.3,0.3,2.6,0.6,3.6,0.9
				c6.7,1.6,9.4,2.3,16.3-5.3c6.4-7.2,9.2-8.3,17-6.7c7,1.5,12-5.8,12.1-5.9c0.2-0.3,0.7-0.4,1-0.2s0.4,0.7,0.2,1
				c-0.2,0.3-5.6,8.1-13.5,6.4c-7.2-1.5-9.5-0.6-15.6,6.3c-7.4,8.3-10.8,7.5-17.7,5.8c-1.1-0.3-2.3-0.6-3.6-0.8
				c-8-1.7-10.9,6.2-11,6.5C358.2,78.9,357.9,79.1,357.6,79.1z"/>
			<circle class="st10" cx="382" cy="73.1" r="1.5"/>
			<circle class="st10" cx="399.5" cy="60" r="1.5"/>
		</g>
	</g>
	<g>
		<path class="st11" d="M382,155.2h-30.4c-1.2,0-2.2-1-2.2-2.2v-19.9c0-1.2,1-2.2,2.2-2.2H382c1.2,0,2.2,1,2.2,2.2V153
			C384.2,154.2,383.2,155.2,382,155.2z"/>
		<path class="st8" d="M384.2,134.1v-1c0-1.2-1-2.2-2.2-2.2h-30.4c-1.2,0-2.2,1-2.2,2.2v1H384.2z"/>
		<rect x="349.4" y="134.1" class="st8" width="34.8" height="2.4"/>
		<circle class="st12" cx="352.1" cy="133.9" r="1.2"/>
		<circle class="st3" cx="356.6" cy="133.9" r="1.2"/>
		<circle class="st9" cx="361.1" cy="133.9" r="1.2"/>
		<g>
			<path class="st3" d="M362,150.5l-6.3-4.1v-1.6l6.3-4.6v2.7l-3.9,2.6l3.9,2.3V150.5z"/>
			<path class="st3" d="M369.4,138.8l-3.4,13.6h-2.2l3.4-13.6H369.4z"/>
			<path class="st3" d="M371.2,147.9l3.9-2.3l-3.9-2.6v-2.7l6.3,4.6v1.6l-6.3,4.1V147.9z"/>
		</g>
	</g>
	<g>
		<path class="st10" d="M417.6,115.2L417.6,115.2c-1.7,0-3.1-1.4-3.1-3.1v-10.5c0-1.7,1.4-3.1,3.1-3.1l0,0c1.7,0,3.1,1.4,3.1,3.1
			v10.5C420.7,113.8,419.3,115.2,417.6,115.2z"/>
		<path class="st9" d="M406.2,115.2L406.2,115.2c-1.7,0-3.1-1.4-3.1-3.1v-4.8c0-1.7,1.4-3.1,3.1-3.1l0,0c1.7,0,3.1,1.4,3.1,3.1v4.8
			C409.4,113.8,407.9,115.2,406.2,115.2z"/>
		<path class="st3" d="M395.8,115.2L395.8,115.2c-1.7,0-3.1-1.4-3.1-3.1v-1c0-1.7,1.4-3.1,3.1-3.1l0,0c1.7,0,3.1,1.4,3.1,3.1v1
			C399,113.8,397.6,115.2,395.8,115.2z"/>
		<path class="st3" d="M426.9,119.5h-37.8c-0.5,0-0.9-0.4-0.9-0.9l0,0c0-0.5,0.4-0.9,0.9-0.9h37.8c0.5,0,0.9,0.4,0.9,0.9l0,0
			C427.8,119.1,427.4,119.5,426.9,119.5z"/>
	</g>
	<circle class="st3" cx="396.2" cy="138.1" r="5.9"/>
	<path class="st3" d="M427.2,135.6h-21.8c-0.7,0-1.2-0.6-1.2-1.2l0,0c0-0.7,0.6-1.2,1.2-1.2h21.8c0.7,0,1.2,0.6,1.2,1.2l0,0
		C428.4,135,427.9,135.6,427.2,135.6z"/>
	<path class="st3" d="M417.3,142.5h-11.9c-0.7,0-1.2-0.6-1.2-1.2l0,0c0-0.7,0.6-1.2,1.2-1.2h11.9c0.7,0,1.2,0.6,1.2,1.2l0,0
		C418.5,141.9,418,142.5,417.3,142.5z"/>
</g>
<path class="st13" d="M532.4,243.1l5.2-0.1l0.9,3.8c0.2,0.7,0.1,1.5-0.3,2c-0.3,0.4-0.7,0.6-1.1,0.6l-13,0.2c-1.3,0-2.3-3.7,1.8-4.9
	C525.9,244.8,530.8,243.2,532.4,243.1z"/>
<path class="st13" d="M556.8,243.1l5.2-0.1l0.9,3.8c0.2,0.7,0.1,1.5-0.3,2c-0.3,0.4-0.7,0.6-1.1,0.6l-13,0.2c-1.3,0-2.3-3.7,1.8-4.9
	C550.2,244.8,555.2,243.2,556.8,243.1z"/>
<polygon class="st14" points="531,155.2 529.2,243.1 538.5,243.1 548.9,158.7 "/>
<polygon class="st14" points="544.1,158.7 553.8,243.1 563.1,243.1 560.6,157.2 "/>
<path class="st15" d="M569.3,120.4c-0.1-1.7-0.4-3.5-1.2-5c-1.1-2.1-3.1-3.4-5.2-4.1c-2.1-0.7-4.4-0.7-6.6-0.8
	c-2.9-0.1-9.8-0.2-12.8-0.3c-0.1,0-0.1,0-0.2,0c-2.9,0.1-5.9,0.2-8.8,0.3c-2.2,0.1-4.5,0.1-6.6,0.8c-2.1,0.7-4.2,2-5.2,4.1
	c-0.8,1.5-1,3.3-1.2,5c-0.1,1.6-0.2,3.2-0.2,4.8c0,2.1,1.7,3.7,3.7,3.4l2.2-0.4c1.9-0.4,3.7,1.3,3.7,3.5c-0.2,6.2-0.4,18-0.3,25.9
	c0,1.8,1.3,3.2,2.9,3.3c2.7,0.2,5.9,0.3,8.6,0.3l0,0c3.3,0.1,11.2-0.1,16.2-0.4c1.6-0.1,2.9-1.6,3-3.3c0.1-8.6-0.2-22.4-0.4-28.8
	c-0.1-1.9,1.3-3.5,3.1-3.5l5.6-0.1C569.6,126.3,569.6,123.3,569.3,120.4z"/>
<path class="st16" d="M539.9,110.4c0,0,2.2,2.9,6.2,2.9s4.9-2.9,4.9-2.9l-5.5-1.5L539.9,110.4z"/>
<path class="st17" d="M527.2,117.7l-10.5,4c-1.4,0.6-3-0.4-3.1-2l-0.9-13.9l-5.2-2.8l-2,21.6c-0.5,5.5,4.5,9.8,9.9,8.6l15.3-7.3
	L527.2,117.7z"/>
<path class="st17" d="M508.4,98.1L508.4,98.1c1.8-0.3,3.4,0.9,3.8,2.6l0.9,5.1c0.3,1.8-0.9,3.4-2.6,3.8l0,0
	c-1.8,0.3-3.4-0.9-3.8-2.6l-0.9-5.1C505.4,100.1,506.6,98.4,508.4,98.1z"/>
<path class="st17" d="M566.1,159.6L566.1,159.6c1.5-0.9,3.5-0.4,4.4,1.2l2.6,4.5c0.9,1.5,0.4,3.5-1.2,4.4l0,0
	c-1.5,0.9-3.5,0.4-4.4-1.2l-2.6-4.5C564,162.5,564.6,160.5,566.1,159.6z"/>
<path class="st13" d="M541.9,99.9L541.9,99.9c-3.1,0.9-6.4-0.8-7.3-3.9l-1-3.2c-0.9-3.1,0.8-6.4,3.9-7.3l0,0
	c3.1-0.9,6.4,0.8,7.3,3.9l1,3.2C546.8,95.6,545,98.9,541.9,99.9z"/>
<path class="st17" d="M551.9,95.7c-0.6,0.1-2.9,0-3.4,0.1l0.3-3c0.3-3.1-1.9-5.8-4.9-6.2l-1.8-0.2c-3.1-0.3-5.8,1.9-6.2,4.9
	l-0.8,6.9c-0.3,3.1,1.9,5.8,4.9,6.2l0,0c1.5,0.2,2.6,1.5,2.4,3c-0.2,2-2.1,2.8-2.5,2.9H551C550.6,104.5,550.9,101.9,551.9,95.7z"/>
<path class="st13" d="M550.9,104c0,0,7.3-7.9,4.8-16s-16.6-9.2-18.1-2.1c-1,4.6,3.1,5.8,6.1,6c3.3,0.3,5.9,2.9,6.2,6.1v0.1
	L550.9,104z"/>
<ellipse transform="matrix(0.1132 -0.9936 0.9936 0.1132 392.1509 632.437)" class="st17" cx="550.4" cy="96.5" rx="2.9" ry="2.6"/>
<path class="st15" d="M523.8,113.9l-5.7,6.3l4.4,11.9c15-9.3,12.6-5.5,21-10.6L523.8,113.9z"/>
<path class="st17" d="M559.6,127.4c0.3,1,5,21.1,5,21.1l-20,12.4l0.2,6.6l23.5-11.2c3.1-1.5,4.9-4.8,4.5-8.2l-1.9-14.6L559.6,127.4z
	"/>
<path class="st13" d="M543.2,81.2h-7.8c-1.2,0-2.1,1.1-1.8,2.3c0.7,3,2.7,7.8,8.4,8.4C548.1,92.6,543.2,81.2,543.2,81.2z"/>
<path class="st17" d="M511.6,106.5L511.6,106.5c-0.7,0.1-1.4-0.4-1.5-1.1l-1.7-12c-0.1-0.7,0.4-1.4,1.1-1.5l0,0
	c0.7-0.1,1.4,0.4,1.5,1.1l1.7,12C512.8,105.7,512.3,106.4,511.6,106.5z"/>
<g>
	<path class="st18" d="M588.2,178.4h-34.1c-0.8,0-1.5-0.7-1.5-1.5l0,0c0-0.8,0.7-1.5,1.5-1.5h34.1c0.8,0,1.5,0.7,1.5,1.5l0,0
		C589.6,177.7,589,178.4,588.2,178.4z"/>
	<path class="st18" d="M574.7,178.4h-29.4c-1.4,0-2.8-1.1-3.2-2.5l-5.5-20.2c-0.4-1.4,0.4-2.5,1.8-2.5h29.4c1.4,0,2.8,1.1,3.2,2.5
		l5.5,20.2C576.9,177.2,576.1,178.4,574.7,178.4z"/>
	<polygon class="st3" points="574.3,174 544.2,174 538.8,154.8 568.9,154.8 	"/>
	<g>
		<path class="st10" d="M551.1,164.2l1.2-7.3c-0.8-0.2-1.6-0.4-2.5-0.4c-4.4,0-7.1,3.5-6.2,7.9c0.9,4.4,5.2,7.9,9.6,7.9
			c1.6,0,3-0.5,4.1-1.3L551.1,164.2z"/>
		<path class="st11" d="M552.3,163.6l1.1-6.3c0,0,3.4,1.5,4.7,4.7L552.3,163.6z"/>
		<path class="st9" d="M552.9,164.6l5.4-1.6c1.4,1.9,1,5.6-0.6,6.9L552.9,164.6z"/>
	</g>
	<path class="st9" d="M568.5,158.9h-9.3c-0.3,0-0.8-0.3-1-0.6l0,0c-0.2-0.3,0-0.6,0.3-0.6h9.3c0.3,0,0.8,0.3,1,0.6l0,0
		C568.9,158.6,568.8,158.9,568.5,158.9z"/>
	<path class="st9" d="M569.7,161.9h-9.3c-0.3,0-0.8-0.3-1-0.6l0,0c-0.2-0.3,0-0.6,0.3-0.6h9.3c0.3,0,0.8,0.3,1,0.6l0,0
		C570.2,161.6,570.1,161.9,569.7,161.9z"/>
	<path class="st9" d="M571,165h-9.3c-0.3,0-0.8-0.3-1-0.6l0,0c-0.2-0.3,0-0.6,0.3-0.6h9.3c0.3,0,0.8,0.3,1,0.6l0,0
		C571.5,164.7,571.3,165,571,165z"/>
</g>
<path class="st7" d="M398.7,250.9L398.7,250.9c-0.9-0.3-1.4-1.2-1.1-2l25.3-68.6c0.3-0.8,1.3-1.3,2.2-1l0,0c0.9,0.3,1.4,1.2,1.1,2
	l-25.3,68.6C400.6,250.7,399.6,251.1,398.7,250.9z"/>
<path class="st7" d="M450.2,250.9L450.2,250.9c0.9-0.3,1.4-1.2,1.1-2L426,180.3c-0.3-0.8-1.3-1.3-2.2-1l0,0c-0.9,0.3-1.4,1.2-1.1,2
	l25.3,68.6C448.3,250.7,449.3,251.1,450.2,250.9z"/>
<path class="st7" d="M661.2,250.9L661.2,250.9c0.9-0.3,1.4-1.2,1.1-2L637,180.3c-0.3-0.8-1.3-1.3-2.2-1l0,0c-0.9,0.3-1.4,1.2-1.1,2
	l25.3,68.6C659.3,250.7,660.3,251.1,661.2,250.9z"/>
<path class="st17" d="M555.3,173.9L555.3,173.9c-0.2-1.8,1.2-3.3,2.9-3.5l5.2-0.4c1.8-0.1,3.3,1.2,3.5,3l0,0
	c0.2,1.8-1.2,3.3-2.9,3.5l-5.2,0.4C557.1,177,555.5,175.6,555.3,173.9z"/>
<path class="st13" d="M592.5,131.3h-2.4c-1.6,0-2.9-1.3-2.9-2.9v-0.6c0-1.6,1.3-2.9,2.9-2.9h2.4c1.6,0,2.9,1.3,2.9,2.9v0.6
	C595.4,130,594.1,131.3,592.5,131.3z M590.2,125.7c-1.1,0-2.1,0.9-2.1,2.1v0.6c0,1.1,0.9,2.1,2.1,2.1h2.4c1.1,0,2.1-0.9,2.1-2.1
	v-0.6c0-1.1-0.9-2.1-2.1-2.1H590.2z"/>
<path class="st17" d="M605.1,127.9c-0.5,0.2-1.1,0.4-1.6,0.6l-0.2-2.9c-0.2-3-2.7-5.3-5.7-5.1l-1.8,0.1c-3,0.2-5.3,2.7-5.1,5.7
	l0.4,6.8c0.2,3,2.7,5.3,5.7,5.1l0,0c1.5-0.1,2.1,0.5,2.9,2.6c0.7,1.8,0.8,3.6,0.8,5.6c2.4-0.5,5.4-1,7.9-0.9
	C607.2,139.4,605.2,134,605.1,127.9z"/>
<path class="st13" d="M592.8,125.5c-5-4.7,1.9-10.6,9.3-9.2c4.4,0.8,8.4,1.9,9.9,6.8c0.4,1.5,0.4,1.4,0.5,3c0.4,4.2-1.8,6.6-2.8,8.3
	c-3.6,6.5-10.4,4.1-11.7,2.2C597,135.2,594.5,127.1,592.8,125.5z"/>
<path class="st17" d="M598.5,143.3c0,0,2.4,1.5,6.2,1.5s4.2-1.5,4.2-1.5l-5.2-1.4L598.5,143.3z"/>
<ellipse transform="matrix(0.9986 -5.204213e-02 5.204213e-02 0.9986 -5.9627 31.192)" class="st17" cx="596" cy="130.1" rx="2.6" ry="3.4"/>
<path class="st13" d="M588.4,128h11.5c0.4,0,0.7-0.3,0.7-0.7l0,0c0-0.4-0.3-0.7-0.7-0.7h-11.5c-0.4,0-0.7,0.3-0.7,0.7l0,0
	C587.8,127.8,588.1,128,588.4,128z"/>
<g>
	<path class="st13" d="M309.6,245.2l-5.4-0.1l-0.9,4c-0.2,0.7-0.1,1.5,0.3,2.1c0.3,0.4,0.7,0.6,1.2,0.6l13.5,0.2
		c1.3,0,2.4-3.9-1.8-5.1C316.5,246.9,311.4,245.2,309.6,245.2z"/>
	<path class="st13" d="M283.7,245.2l-5.4-0.1l-0.9,4c-0.2,0.7-0.1,1.5,0.3,2.1c0.3,0.4,0.7,0.6,1.2,0.6l13.5,0.2
		c1.3,0,2.4-3.9-1.8-5.1C290.6,246.9,285.4,245.2,283.7,245.2z"/>
	<polygon class="st10" points="313,154.1 313,245.2 303.3,245.2 294.4,157.7 	"/>
	<polygon class="st10" points="297.6,157.7 287.6,245.2 277.9,245.2 280.5,156.2 	"/>
	<path class="st19" d="M270.8,115.7c0.2-1.8,0.4-3.6,1.3-5.2c1.2-2.1,3.5-3.5,5.9-4.2s4.9-0.8,7.4-0.8c3.3-0.1,11.1-0.2,14.5-0.3
		c0.1,0,0.1,0,0.2,0c3.3,0.1,6.6,0.2,9.9,0.3c2.5,0.1,5,0.2,7.4,0.8s4.7,2.1,5.9,4.2c0.9,1.6,1.2,3.4,1.3,5.2
		c0.2,1.6,0.2,3.3,0.2,4.9c0,2.2-2,3.8-4.1,3.5l-2.5-0.4c-2.2-0.4-4.2,1.4-4.1,3.6c0.2,6.4,0.5,18.6,0.3,26.8c0,1.8-1.5,3.3-3.3,3.4
		c-3.1,0.2-6.6,0.3-9.7,0.3l0,0c-3.7,0.1-12.6-0.1-18.2-0.4c-1.8-0.1-3.3-1.6-3.3-3.5c-0.2-8.9,0.3-23.2,0.5-29.9
		c0.1-2-1.5-3.6-3.5-3.6l-6.2-0.1C270.4,121.7,270.5,118.7,270.8,115.7z"/>
	<path class="st16" d="M303.7,105.3c0,0-2.2,3-6.4,3c-4.1,0-5.1-3-5.1-3l5.7-1.5L303.7,105.3z"/>
	<path class="st17" d="M281.5,119.7l-5.9,13.2c-1.3,2.9-2.3,6.7-2.3,6.7l12.5,4.1l0.4,5.7l-17.1-3.4c-3.1-0.6-5-3.6-4.4-6.6
		c0.7-3.2,1.5-6.8,1.9-8.3l4.6-18.1L281.5,119.7z"/>
	<path class="st17" d="M324.5,114.8l5.3,10.4c0.7,1.4,2.6,1.7,3.8,0.6l10.3-10l6,1.5l-13.5,18c-3.4,4.6-10.3,4.5-13.6-0.2
		l-10.2-14.5L324.5,114.8z"/>
	<path class="st17" d="M354.9,115.3L354.9,115.3c-0.5-1.8-2.3-2.9-4.1-2.4l-5.2,1.3c-1.8,0.5-2.9,2.3-2.4,4.1l0,0
		c0.5,1.8,2.3,2.9,4.1,2.4l5.2-1.3C354.2,118.9,355.3,117.1,354.9,115.3z"/>
	<path class="st13" d="M301.5,94.4L301.5,94.4c3.2,1,6.6-0.8,7.6-4l1-3.3c1-3.2-0.8-6.6-4-7.6l0,0c-3.2-1-6.6,0.8-7.6,4l-1,3.3
		C296.5,90,298.4,93.4,301.5,94.4z"/>
	<path class="st17" d="M291.2,90.1c0.6,0.1,3,0,3.5,0.1l-0.3-3.1c-0.4-3.2,1.9-6,5.1-6.4l1.9-0.2c3.2-0.4,6,1.9,6.4,5.1l0.8,7.2
		c0.4,3.2-1.9,6-5.1,6.4l0,0c-1.6,0.2-2.7,1.6-2.5,3.1c0.2,2.1,2,2.6,2.4,2.8l-10.7,1.4C292.4,100.4,292.3,96.5,291.2,90.1z"/>
	<path class="st13" d="M292.3,98.6c0,0-7.5-8.2-5-16.6s17.2-9.5,18.8-2.1c1.6,7.4-9.3,6.3-9.3,6.3s-4.3,1.7-4.7,6.3L292.3,98.6z"/>
	<ellipse transform="matrix(0.9936 -0.1132 0.1132 0.9936 -8.4186 33.7412)" class="st17" cx="292.9" cy="91" rx="2.7" ry="3"/>
	<path class="st13" d="M294.7,92.3L294.7,92.3c0.6-0.1,1-0.6,0.9-1.2l-0.4-3.8c-0.1-0.6-0.6-1-1.2-0.9l0,0c-0.6,0.1-1,0.6-0.9,1.2
		l0.4,3.8C293.6,92,294.1,92.4,294.7,92.3z"/>
	<polygon class="st19" points="270.4,113.5 266.2,131.3 276,135.3 284,117.6 272.3,110.6 	"/>
	<path class="st19" d="M322.9,110l8.4,15.5l-2.6,13.4c-5.9,0.4-12.6-10-19.4-19.9L322.9,110z"/>
	<path class="st3" d="M330.5,138.5l2.5-12.1c0.2-0.8-0.3-1.5-1.1-1.7l0,0c-0.8-0.2-1.5,0.3-1.7,1.1l-2.5,12.1
		c-0.2,0.8,0.3,1.5,1.1,1.7l0,0C329.6,139.8,330.4,139.3,330.5,138.5z"/>
	<path class="st3" d="M265.9,134.1l9.1,3.2c0.7,0.3,1.6-0.1,1.8-0.9l0,0c0.3-0.7-0.1-1.6-0.9-1.8l-9.1-3.2c-0.7-0.3-1.6,0.1-1.8,0.9
		l0,0C264.8,133,265.1,133.8,265.9,134.1z"/>
	<polygon class="st3" points="301.4,102.6 307,105.4 301.4,112.9 297.3,108.3 	"/>
	<polygon class="st3" points="292.5,101.8 287.8,105.4 293.5,112.9 297.6,108.3 	"/>
	<path class="st17" d="M288.7,144l-0.8-1.3c-0.7-1.2-2.3-1.7-3.5-0.9l-1.7,1c-1.2,0.7-1.7,2.3-0.9,3.5l0.8,1.3
		c0.7,1.2,2.3,1.7,3.5,0.9l1.7-1C289,146.8,289.4,145.2,288.7,144z"/>
</g>
<polygon class="st15" points="556.8,122 560.6,139.9 572.9,137 569.2,119.3 "/>
<g>
	<path class="st20" d="M503.3,80.9h21.3c2,0,3.7-1.7,3.7-3.7l0.1-10.7c0-2-1.6-3.7-3.6-3.7h-21.3c-2,0-3.7,1.7-3.7,3.7l-0.1,10.7
		C499.7,79.2,501.3,80.9,503.3,80.9z"/>
	<path class="st20" d="M524.3,79.7l2.3,4.3c0.5,0.9-0.4,1.9-1.4,1.6l-15.8-5.9H524.3z"/>
	<g>
		<path class="st3" d="M508.3,72c0,1.2-1,2.1-2.1,2.1c-1.2,0-2.1-0.9-2.1-2.1s1-2.1,2.1-2.1S508.3,70.8,508.3,72z"/>
		<path class="st3" d="M515.6,72c0,1.2-1,2.1-2.1,2.1c-1.2,0-2.1-0.9-2.1-2.1s1-2.1,2.1-2.1S515.6,70.8,515.6,72z"/>
		<path class="st3" d="M523,72c0,1.2-1,2.1-2.1,2.1s-2.1-0.9-2.1-2.1s1-2.1,2.1-2.1C522.1,69.9,523,70.8,523,72z"/>
	</g>
</g>
<g>
	<path class="st14" d="M321.1,79.5l-4.3,8.1c-0.5,0.9,0.4,1.9,1.4,1.6l15.8-5.9L321.1,79.5z"/>
	<g>
		<path class="st14" d="M336.3,87.1h-6.6c-5.7,0-10.4-4.7-10.4-10.4l0,0c0-5.7,4.7-10.4,10.4-10.4h6.6c5.7,0,10.4,4.7,10.4,10.4l0,0
			C346.7,82.4,342,87.1,336.3,87.1z"/>
		<g>
			<line class="st21" x1="327.1" y1="76.4" x2="332.2" y2="81.5"/>
			<line class="st21" x1="339.3" y1="71.9" x2="329.6" y2="81.5"/>
		</g>
	</g>
</g>
<g>
	<path class="st22" d="M163.9,162.4h4v-8.5l0,0l0,0v-3.5l0,0v-4l0,0l0,0v-40.9l-3.3-4.5l-0.1,25.1c0,0.1,0,0.3,0,0.4l0,0v0.7
		c0,0.8,0,1.5-0.1,2.3l-2,40.7h1.5L163.9,162.4L163.9,162.4z"/>
	<polygon class="st22" points="98.7,95.8 115.4,125.1 111.9,86.9 	"/>
	<path class="st22" d="M178.3,163.7c-0.3,2.6-2.5,4.6-5.2,4.6s-4.8-2-5.2-4.6h-2.8v6.5h5.8l0,0h9.8v-6.5H178.3z"/>
	<path class="st22" d="M145.6,150.3L145.6,150.3L145.6,150.3z"/>
	<polygon class="st23" points="141.8,213.2 145.7,213.2 145.7,213.2 	"/>
	<polygon class="st14" points="197.8,170.2 182.2,170.2 182.2,170.3 180.9,170.3 180.9,170.2 171,170.2 168.6,191.1 197.8,191.1 
		197.8,192.4 175.6,192.4 175.6,196.9 168,196.9 166.1,213.2 160.3,213.2 160.3,213.2 204.3,213.2 204.3,213.2 197.8,213.2 	"/>
	<polygon class="st24" points="204.3,170.2 197.8,170.2 197.8,170.2 197.8,213.2 204.3,213.2 204.3,213.2 	"/>
	<polygon class="st25" points="165.2,170.2 165.2,170.3 163.9,170.3 163.9,170.2 160.4,170.2 159.4,191.1 168.6,191.1 171,170.2 
		171,170.2 	"/>
	<polygon class="st25" points="166.5,192.4 159.3,192.4 158.3,213.2 166.1,213.2 168,196.9 166.5,196.9 	"/>
	<polygon class="st25" points="145.6,192.4 141.8,192.4 141.8,191.1 145.7,191.1 145.7,179.6 147,179.6 147,170.2 141.8,170.2 
		141.8,170.2 141.8,213.2 145.6,213.2 	"/>
	<path class="st17" d="M146,52.7l-0.3-6.2l-1.1,0.2c-5.2,0.9-10-2.6-10.9-7.8L131.9,28l0,0l-0.2-1c-0.3-1.9-2.1-3.2-4.1-2.9
		c-1.9,0.3-3.2,2.1-2.9,4.1c0.3,1.9,2.1,3.2,4.1,2.9l0,0l1.4,8.3l-0.6,0.1c-0.2,0-0.4,0-0.5,0.1l0.6,13.2l0,0L146,52.7L146,52.7z"/>
	<path class="st26" d="M119.9,52.7L119.9,52.7C120,52.7,120,52.7,119.9,52.7L119.9,52.7z"/>
	<polygon class="st14" points="141.8,192.4 145.6,192.4 145.6,191.3 145.7,191.3 145.7,191.1 141.8,191.1 	"/>
	<polygon class="st12" points="166.5,191.1 166.5,192.4 166.5,196.9 168,196.9 175.6,196.9 175.6,192.4 175.6,191.1 	"/>
	<path class="st14" d="M163.9,170.2L163.9,170.2h1.3l0,0v-6.5h2.8c0-0.2,0-0.4,0-0.6v-0.7h-4v7.8H163.9z"/>
	<path class="st14" d="M178.3,163.7h2.5v6.5l0,0h1.3l0,0v-7.8h-3.8c0,0.2,0,0.4,0,0.6C178.4,163.3,178.3,163.5,178.3,163.7z"/>
	<path class="st26" d="M185,102c0-1.2-0.3-2.4-0.8-3.5L184,98l0,0l-17.2-37.7l0,0c0-0.1-0.1-0.1-0.1-0.2c-0.1-0.2-0.2-0.5-0.4-0.7
		c-0.1-0.2-0.2-0.3-0.3-0.5s-0.2-0.4-0.4-0.6c-0.1-0.1-0.1-0.2-0.2-0.3c-0.1-0.1-0.1-0.2-0.2-0.3c-0.1-0.1-0.1-0.2-0.2-0.3
		c-0.1-0.1-0.1-0.2-0.2-0.2c-0.2-0.2-0.3-0.4-0.5-0.5c-0.1-0.1-0.3-0.3-0.4-0.4c-0.2-0.2-0.3-0.3-0.5-0.5c-0.2-0.1-0.3-0.3-0.5-0.4
		c-0.2-0.1-0.3-0.3-0.5-0.4c-0.2-0.1-0.3-0.2-0.5-0.4c-0.2-0.1-0.4-0.2-0.5-0.3c-0.2-0.1-0.4-0.2-0.6-0.3c-0.2-0.1-0.4-0.2-0.5-0.3
		c-0.2-0.1-0.4-0.2-0.6-0.3c-0.2-0.1-0.4-0.1-0.6-0.2c-0.2-0.1-0.4-0.1-0.6-0.2c-0.2-0.1-0.4-0.1-0.6-0.1c-0.2-0.1-0.4-0.1-0.6-0.1
		c-0.2,0-0.4-0.1-0.6-0.1c-0.2,0-0.4-0.1-0.6-0.1c-0.2,0-0.4,0-0.6,0c-0.2,0-0.3,0-0.5,0l0,0h-5.3v13.7l-3.5,13.8l-4.8,19.4
		l-4.8-19.4L133,65.9l-1.6-6.5l-1.7-6.8H120l0,0c-0.2,0-0.4,0-0.6,0s-0.4,0-0.6,0s-0.4,0.1-0.6,0.1s-0.4,0-0.6,0.1
		c-0.2,0-0.4,0.1-0.6,0.1c-0.2,0.1-0.4,0.1-0.7,0.2c-0.2,0.1-0.3,0.1-0.5,0.2c-0.2,0.1-0.5,0.2-0.7,0.3c-0.1,0.1-0.3,0.1-0.4,0.2
		c-0.2,0.1-0.5,0.2-0.7,0.4c-0.1,0.1-0.3,0.2-0.4,0.2c-0.2,0.1-0.5,0.3-0.7,0.4h-0.1c-0.2,0.1-0.3,0.2-0.4,0.3s-0.3,0.2-0.5,0.3
		c0,0,0,0-0.1,0.1s-0.3,0.2-0.4,0.4c-0.2,0.2-0.4,0.3-0.5,0.5l0,0L80.6,86.7l0,0c-2.8,2.8-3.5,7.1-1.4,10.7c0.3,0.5,0.6,1,1,1.4l0,0
		l29.3,33.8l6.9-6l-0.9-1.5L98.7,95.8l13.2-8.9l1.2-0.8l3.9,41.8l1.2,2l0.1,0.2l0.4,0.6l6.4-0.9c2.8-0.4,5.5,1.6,5.9,4.4
		c0.4,2.9-1.6,5.5-4.4,5.9c-0.5,0.1-1,0.1-1.5,0l0,0l-7.7-1.1l-3.3,51.4l-4.3,83.2v0.1c0,0.2,0,0.4,0,0.6h11v0.4l8.4-89.5l4.2-35.1
		c2.5,0.8,5.2,1.1,7.9,1c1.3-0.1,2.6-0.2,3.8-0.5v-0.1l0.7,40.8v0.2v82.8c0,0.1,0,0.1,0,0.2h11l3.5-83.6l0,0l3-61.2
		c0.1-0.7,0.1-1.4,0.1-2.1v-0.1c0-0.3,0-0.7,0-1l0.2-33.1h0.7l3.9,12.5v40.9l9,1.8l7.9-44.7C185,103.1,185,102.5,185,102z"/>
	<path class="st17" d="M175.7,154.7l-0.5-0.1L175.7,154.7l0.5-2.6l-8.3-1.6l0,0v3.5l0,0l0,0v8.5v0.7c0,0.2,0,0.4,0,0.6
		c0.3,2.6,2.5,4.6,5.2,4.6s4.8-2,5.2-4.6c0-0.2,0-0.4,0-0.7c0-0.2,0-0.4,0-0.6c0-0.3-0.1-0.5-0.2-0.8l0,0l-2.3-7.8l0,0L175.7,154.7z
		"/>
	<polygon class="st3" points="167.9,150.5 176.2,152.1 175.7,154.7 175.2,154.7 175.7,154.7 175.9,153.8 176.2,152.1 176.9,148.3 
		167.9,146.5 167.9,146.5 	"/>
	<path class="st27" d="M109.7,274.2L109.7,274.2l-6.3,3.4c-0.5,0.3-0.9,0.8-0.9,1.4c0,0.9,0.7,1.6,1.6,1.6h16.5v-6.2V274h-10.9
		C109.7,274,109.7,274.2,109.7,274.2z"/>
	<path class="st10" d="M130.2,39.4l-1.4-8.3l0,0c-1.9,0.3-3.8-1-4.1-2.9c-0.3-1.9,1-3.8,2.9-4.1c1.9-0.3,3.8,1,4.1,2.9l0.2,1l0,0
		l1.8,10.9c0.9,5.2,5.7,8.7,10.9,7.8l1.1-0.2l8.2-1.4c2.7-0.4,4.4-3,3.9-5.7l-1-4.7l-0.2-1.1l-1.2-5.6l0,0L140,30.6
		c-2.1,0.4-4.2-1.1-4.5-3.2l-2.3-14c2.1,1.7,4.9,2.5,7.8,2l10.8-1.8c0.6,1.1,1,2.2,1.3,3.4l0.6,3c3.6-1.3,5.9-4.9,5.2-8.8l0,0
		c-0.4-2.6-2-4.7-4.2-5.8c-0.7-2.9-3.2-5.1-6.1-5.4c-0.5-0.1-1.1-0.1-1.6,0l-0.4,0.1l0,0L140.9,1l0,0l-0.6,0.1
		C139,1.4,138,2,137.3,3c-1-0.9-2.5-1.4-4-1.2c-2.2,0.4-3.8,2.2-4,4.4c-6,1.4-10,7.2-9,13.4l1.4,8.6l0,0l1.1,6.4
		c0.5,3,3.2,5.2,6.3,4.9c0.2,0,0.4,0,0.5-0.1H130.2z M153.1,31.5c0.3,2-1,3.8-2.9,4.1c-2,0.3-3.8-1-4.1-2.9L153.1,31.5z"/>
	<path class="st17" d="M156.7,34.8l-0.2-1.1L156.7,34.8z"/>
	<path class="st17" d="M152.9,17.1c-0.3-1.2-0.7-2.4-1.3-3.4l-10.8,1.8c-2.9,0.5-5.6-0.3-7.8-2l2.3,14c0.4,2.1,2.4,3.6,4.5,3.2
		l15.3-2.5l-1.7-8L152.9,17.1z"/>
	<path class="st27" d="M145.6,274.2v6.5h16.5c0.9,0,1.6-0.7,1.6-1.6c0-0.6-0.3-1.1-0.9-1.4l-6.3-3.4l0,0h-10.9L145.6,274.2
		L145.6,274.2z"/>
	<path class="st3" d="M150.2,35.7c2-0.3,3.3-2.2,2.9-4.1l-7.1,1.2C146.4,34.7,148.2,36,150.2,35.7z"/>
	<polygon class="st28" points="118.2,129.9 116.3,126.7 117,127.9 	"/>
	<polygon class="st3" points="118.3,130.1 118.2,129.9 116.3,126.7 109.4,132.7 109.4,132.7 111.9,135.6 	"/>
	<polygon class="st3" points="113.7,137.6 113.7,137.6 115,136.7 	"/>
	<polygon class="st3" points="131.4,59.5 133,65.9 136.6,80.3 140.8,55.8 142.1,55.8 146.2,80.3 149.7,66.4 149.7,52.7 146,52.7 
		129.7,52.7 	"/>
	<polygon class="st14" points="142.1,55.8 140.8,55.8 136.6,80.3 141.4,99.7 146.2,80.3 	"/>
</g>
<g>
	<circle class="st7" cx="222.3" cy="31" r="31"/>
	<circle class="st7" cx="222.3" cy="31" r="27.3"/>
	<path class="st8" d="M208,7.7c4.2-2.6,9.1-4,14.3-4c15.1,0,27.3,12.2,27.3,27.3c0,0.3,0,0.6,0,1h-27.1L208,7.7z"/>
	<path class="st3" d="M221.4,51.2v4.2c0,0.5,0.4,0.9,0.9,0.9s0.9-0.4,0.9-0.9v-4.2c0-0.5-0.4-0.9-0.9-0.9
		C221.8,50.4,221.4,50.7,221.4,51.2z M221.4,6.5v4.2c0,0.5,0.4,0.9,0.9,0.9s0.9-0.4,0.9-0.9V6.5c0-0.5-0.4-0.9-0.9-0.9
		C221.8,5.7,221.4,6,221.4,6.5z M241.7,31c0,0.5,0.4,0.9,0.9,0.9h4.2c0.5,0,0.9-0.4,0.9-0.9s-0.4-0.9-0.9-0.9h-4.2
		C242.1,30.1,241.7,30.5,241.7,31z M197,31c0,0.5,0.4,0.9,0.9,0.9h4.2c0.5,0,0.9-0.4,0.9-0.9s-0.4-0.9-0.9-0.9h-4.2
		C197.4,30.1,197,30.5,197,31z M236,44.7c-0.3,0.3-0.3,0.9,0,1.2l3,3c0.3,0.3,0.9,0.3,1.2,0s0.3-0.9,0-1.2l-3-3
		C236.9,44.3,236.3,44.3,236,44.7z M204.4,13.1c-0.3,0.3-0.3,0.9,0,1.2l3,3c0.3,0.3,0.9,0.3,1.2,0s0.3-0.9,0-1.2l-3-3
		C205.3,12.7,204.7,12.7,204.4,13.1z M204.4,47.7c-0.3,0.3-0.3,0.9,0,1.2s0.9,0.3,1.2,0l3-3c0.3-0.3,0.3-0.9,0-1.2s-0.9-0.3-1.2,0
		L204.4,47.7z M236,16.1c-0.3,0.3-0.3,0.9,0,1.2c0.3,0.3,0.9,0.3,1.2,0l3-3c0.3-0.3,0.3-0.9,0-1.2s-0.9-0.3-1.2,0L236,16.1z"/>
	<g>
		<path class="st3" d="M221.8,31l1.2-0.7l-11.2-18.7c-0.2-0.3-0.6-0.4-0.9-0.2l0,0c-0.3,0.2-0.4,0.6-0.2,0.9L221.8,31z"/>
		<path class="st3" d="M222.6,32.3h7.7c0.7,0,1.3-0.6,1.3-1.3l0,0c0-0.7-0.6-1.3-1.3-1.3h-7.7V32.3z"/>
		<circle class="st9" cx="222.3" cy="31" r="2.4"/>
	</g>
</g>
<g>
	<path class="st14" d="M254.1,9.8l-4.7,1.6c-0.5,0.1-0.7,0.5-0.9,0.8l-2,4.6l-1.6-4.7c-0.1-0.5-0.5-0.7-0.8-0.9l-4.6-2l4.7-1.6
		c0.5-0.1,0.7-0.5,0.9-0.8l2-4.6l1.6,4.7c0.1,0.5,0.5,0.7,0.8,0.9L254.1,9.8z"/>
	<path class="st14" d="M197.1,22.8l-4.7,1.6c-0.5,0.1-0.7,0.5-0.9,0.8l-2,4.6l-1.6-4.7c-0.1-0.5-0.5-0.7-0.8-0.9l-4.6-2l4.7-1.6
		c0.5-0.1,0.7-0.5,0.9-0.8l2-4.6l1.6,4.7c0.1,0.5,0.5,0.7,0.8,0.9L197.1,22.8z"/>
	<path class="st12" d="M270,23.7l-6.5,2.3c-0.6,0.2-1,0.6-1.3,1.1l-2.8,6.4l-2.3-6.5c-0.2-0.6-0.6-1-1.1-1.3l-6.4-2.8l6.5-2.3
		c0.6-0.2,1-0.6,1.3-1.1l2.8-6.4l2.3,6.5c0.2,0.6,0.6,1,1.1,1.3L270,23.7z"/>
</g>
<g>
	<path class="st29" d="M128.4,140.1h11.5c0.5,0,0.9-0.4,0.9-0.9v-17.3c0-0.5-0.4-0.9-0.9-0.9h-11.5c-0.5,0-0.9,0.4-0.9,0.9v17.3
		C127.5,139.7,127.9,140.1,128.4,140.1z"/>
	<path class="st29" d="M127.7,125.2h4.5c2.1,0,3.9,1.1,4.8,2.8c-0.3-0.1-0.6-0.1-1-0.1h-7.8c-2.2,0-4,1.8-4,4s1.8,4,4,4h7.8
		c0.2,0,0.5,0,0.7-0.1c-1,1.4-2.7,2.4-4.6,2.4h-4.5c-3.1,0-5.6-2.5-5.6-5.6v-1.7C122.1,127.7,124.6,125.2,127.7,125.2z"/>
	<rect x="129.7" y="121" class="st9" width="4" height="19.1"/>
</g>
<path class="st17" d="M117.3,139l7.7,1.1l0,0c0.5,0.1,1,0.1,1.5,0c2.8-0.4,4.8-3,4.4-5.9c-0.4-2.8-3-4.8-5.9-4.4l-6.4,0.9l-0.3-0.6
	l0,0l-6.4,5.5l0,0l1.6,1.9c0.6,0.7,1.5,1.2,2.4,1.3l0,0l0,0L117.3,139z M113.7,137.6L113.7,137.6l1.3-0.9L113.7,137.6z"/>
<g>
	<line class="st30" x1="716.1" y1="89.5" x2="716.1" y2="102.1"/>
	<line class="st30" x1="709.8" y1="95.8" x2="722.4" y2="95.8"/>
</g>
<g>
	<line class="st30" x1="66.1" y1="34.7" x2="66.1" y2="47.3"/>
	<line class="st30" x1="59.8" y1="41" x2="72.4" y2="41"/>
</g>
<g>
	<line class="st31" x1="481.1" y1="48.7" x2="481.1" y2="61.3"/>
	<line class="st31" x1="474.8" y1="55" x2="487.4" y2="55"/>
</g>
<g>
	<line class="st32" x1="47.8" y1="17.7" x2="47.8" y2="30.3"/>
	<line class="st32" x1="41.5" y1="24" x2="54.1" y2="24"/>
</g>
<g>
	<line class="st32" x1="725.9" y1="69.6" x2="725.9" y2="82.2"/>
	<line class="st32" x1="719.6" y1="75.9" x2="732.2" y2="75.9"/>
</g>
<g>
	<line class="st32" x1="714.9" y1="140.1" x2="714.9" y2="152.7"/>
	<line class="st32" x1="708.6" y1="146.4" x2="721.2" y2="146.4"/>
</g>
<path class="st14" d="M642.9,38.6l-4.7,1.6c-0.5,0.1-0.7,0.5-0.9,0.8l-2,4.6l-1.6-4.7c-0.1-0.5-0.5-0.7-0.8-0.9l-4.6-2l4.7-1.6
	c0.5-0.1,0.7-0.5,0.9-0.8l2-4.6l1.6,4.7c0.1,0.5,0.5,0.7,0.8,0.9L642.9,38.6z"/>
<path class="st12" d="M594.5,70.3l-4.7,1.6c-0.5,0.1-0.7,0.5-0.9,0.8l-2,4.6l-1.6-4.7c-0.1-0.5-0.5-0.7-0.8-0.9l-4.6-2l4.7-1.6
	c0.5-0.1,0.7-0.5,0.9-0.8l2-4.6l1.6,4.7c0.1,0.5,0.5,0.7,0.8,0.9L594.5,70.3z"/>
<path class="st12" d="M722,57.8l-4.7,1.6c-0.5,0.1-0.7,0.5-0.9,0.8l-2,4.6l-1.6-4.7c-0.1-0.5-0.5-0.7-0.8-0.9l-4.6-2l4.7-1.6
	c0.5-0.1,0.7-0.5,0.9-0.8l2-4.6l1.6,4.7c0.1,0.5,0.5,0.7,0.8,0.9L722,57.8z"/>
<path class="st12" d="M634.2,55l-6.5,2.3c-0.6,0.2-1,0.6-1.3,1.1l-2.8,6.4l-2.3-6.5c-0.2-0.6-0.6-1-1.1-1.3l-6.4-2.8l6.5-2.3
	c0.6-0.2,1-0.6,1.3-1.1l2.8-6.4l2.3,6.5c0.2,0.6,0.6,1,1.1,1.3L634.2,55z"/>
<g>
	<path class="st7" d="M652.4,194c0-0.6,0.2-1,0.5-1.3s0.8-0.5,1.5-0.5c0.6,0,1.1,0.2,1.4,0.5c0.3,0.3,0.5,0.7,0.5,1.3
		s-0.2,1-0.5,1.3s-0.8,0.5-1.4,0.5c-0.6,0-1.1-0.2-1.4-0.5C652.6,195,652.4,194.5,652.4,194z"/>
	<path class="st7" d="M671.5,195.5h-4.8l-5-9.6h-0.1c0.1,1.5,0.2,2.7,0.2,3.4v6.1h-3.2v-13.6h4.8l4.9,9.4h0.1
		c-0.1-1.4-0.1-2.5-0.1-3.3v-6.1h3.3v13.7L671.5,195.5L671.5,195.5z"/>
	<path class="st7" d="M682.4,195.5h-8.1v-13.6h8.1v2.9H678v2.1h4.1v2.9H678v2.6h4.4V195.5z"/>
	<path class="st7" d="M690.8,195.5h-3.7v-10.6h-3.3v-3h10.3v3h-3.3V195.5z"/>
</g>
<g>
	<path class="st7" d="M718.3,127.2h-2.7v-4h-3.1v4H710v-9.7h2.7v3.6h3.1v-3.6h2.7L718.3,127.2L718.3,127.2z"/>
	<path class="st7" d="M724.7,127.2H722v-7.6h-2.4v-2.2h7.4v2.2h-2.4L724.7,127.2L724.7,127.2z"/>
	<path class="st7" d="M732.7,127.2l-2-7h-0.1c0.1,1.2,0.1,2.1,0.1,2.8v4.2h-2.3v-9.7h3.5l2,6.9h0.1l2-6.9h3.5v9.7h-2.4V123
		c0-0.2,0-0.5,0-0.7c0-0.3,0.1-1,0.1-2h-0.1l-1.9,7h-2.5L732.7,127.2L732.7,127.2z"/>
	<path class="st7" d="M741.6,127.2v-9.7h2.7v7.6h3.7v2.1H741.6z"/>
</g>
<g>
	<path class="st7" d="M514.7,40.8c0,1.4-0.4,2.4-1.2,3.2s-2,1.1-3.5,1.1h-1v4.1h-3.4V36.8h4.2c1.6,0,2.8,0.3,3.5,1
		S514.7,39.5,514.7,40.8z M509.1,42.3h0.6c0.5,0,0.9-0.2,1.2-0.4c0.3-0.3,0.4-0.7,0.4-1.1c0-0.9-0.4-1.2-1.4-1.2H509L509.1,42.3
		L509.1,42.3z"/>
	<path class="st7" d="M527.2,49.1h-3.4v-5H520v5h-3.4V36.8h3.4v4.6h3.9v-4.6h3.4v12.3H527.2z"/>
	<path class="st7" d="M538.8,40.8c0,1.4-0.4,2.4-1.2,3.2s-2,1.1-3.5,1.1h-1v4.1h-3.4V36.8h4.2c1.6,0,2.8,0.3,3.5,1
		S538.8,39.5,538.8,40.8z M533.2,42.3h0.6c0.5,0,0.9-0.2,1.2-0.4c0.3-0.3,0.4-0.7,0.4-1.1c0-0.9-0.4-1.2-1.4-1.2h-0.9v2.7H533.2z"/>
</g>
<g>
	<path class="st7" d="M734.3,104.3c-0.6,0-1.2-0.1-1.8-0.2v-2.7c0.2,0,0.4,0.1,0.6,0.1c0.3,0,0.4,0.1,0.7,0.1c0.5,0,1-0.2,1.2-0.5
		c0.3-0.4,0.4-0.9,0.4-1.8V87.6h3.5v11.5c0,1.7-0.4,3-1.2,3.9C737,103.9,735.8,104.3,734.3,104.3z"/>
	<path class="st7" d="M749.9,96.4c0,0.8-0.2,1.5-0.6,2.1c-0.4,0.6-1,1.1-1.7,1.4c-0.7,0.4-1.6,0.5-2.7,0.5c-0.9,0-1.5-0.1-2.1-0.2
		s-1.2-0.4-1.8-0.6v-3c0.6,0.4,1.3,0.6,2,0.8c0.7,0.2,1.3,0.3,2,0.3c0.5,0,0.9-0.1,1.2-0.3c0.3-0.2,0.4-0.4,0.4-0.7
		c0-0.2-0.1-0.4-0.2-0.4s-0.3-0.3-0.4-0.4c-0.2-0.1-0.8-0.4-1.7-0.8c-0.8-0.4-1.4-0.7-1.9-1.1s-0.7-0.8-0.9-1.2
		c-0.2-0.4-0.3-1-0.3-1.6c0-1.2,0.4-2,1.2-2.8c0.8-0.7,2-1,3.5-1c1.3,0,2.7,0.3,4,0.9l-1.1,2.7c-1.2-0.5-2.2-0.8-3.1-0.8
		c-0.4,0-0.8,0.1-1,0.3c-0.2,0.2-0.3,0.4-0.3,0.6c0,0.3,0.1,0.4,0.4,0.7c0.3,0.3,1,0.5,2.1,1.1c1.1,0.5,1.9,1,2.3,1.6
		S749.9,95.6,749.9,96.4z"/>
</g>
<g>
	<path class="st7" d="M739.6,143.8c-0.6,0-1.1,0.3-1.5,0.8s-0.6,1.3-0.6,2.2c0,1.9,0.7,2.9,2.2,2.9c0.4,0,0.8-0.1,1.3-0.2
		c0.4-0.1,0.8-0.3,1.3-0.4v2.3c-0.8,0.3-1.7,0.6-2.8,0.6c-1.5,0-2.7-0.4-3.5-1.3c-0.8-0.9-1.2-2.2-1.2-3.8c0-1,0.2-2,0.6-2.7
		c0.3-0.8,1-1.4,1.7-1.8c0.7-0.4,1.6-0.6,2.6-0.6s2.1,0.2,3.1,0.7l-0.8,2.1c-0.3-0.1-0.8-0.3-1.1-0.4
		C740.4,143.9,740,143.8,739.6,143.8z"/>
	<path class="st7" d="M750.8,148.7c0,0.6-0.1,1.2-0.5,1.7c-0.3,0.5-0.8,0.8-1.3,1.1c-0.6,0.3-1.3,0.4-2.1,0.4
		c-0.7,0-1.2-0.1-1.7-0.1s-0.9-0.3-1.4-0.5v-2.4c0.5,0.3,1,0.5,1.6,0.6s1,0.2,1.5,0.2c0.4,0,0.7-0.1,0.9-0.2
		c0.2-0.1,0.3-0.3,0.3-0.6c0-0.1-0.1-0.3-0.1-0.3c-0.1-0.1-0.2-0.2-0.3-0.3s-0.6-0.3-1.3-0.6c-0.6-0.3-1.1-0.6-1.5-0.8
		c-0.3-0.3-0.6-0.6-0.7-1c-0.1-0.3-0.2-0.8-0.2-1.3c0-0.9,0.3-1.6,1-2.2c0.6-0.6,1.6-0.8,2.7-0.8c1,0,2.1,0.2,3.1,0.7l-0.8,2.1
		c-0.9-0.4-1.7-0.6-2.4-0.6c-0.3,0-0.6,0.1-0.8,0.2c-0.1,0.1-0.2,0.3-0.2,0.5s0.1,0.3,0.3,0.6c0.2,0.2,0.8,0.4,1.7,0.8
		c0.8,0.4,1.5,0.8,1.8,1.3C750.6,147.7,750.8,148,750.8,148.7z"/>
	<path class="st7" d="M758.8,148.7c0,0.6-0.1,1.2-0.5,1.7c-0.3,0.5-0.8,0.8-1.3,1.1c-0.6,0.3-1.3,0.4-2.1,0.4
		c-0.7,0-1.2-0.1-1.7-0.1c-0.5-0.1-0.9-0.3-1.4-0.5v-2.4c0.5,0.3,1,0.5,1.6,0.6s1,0.2,1.5,0.2c0.4,0,0.7-0.1,0.9-0.2
		c0.2-0.1,0.3-0.3,0.3-0.6c0-0.1-0.1-0.3-0.1-0.3c-0.1-0.1-0.2-0.2-0.3-0.3s-0.6-0.3-1.3-0.6c-0.6-0.3-1.1-0.6-1.5-0.8
		c-0.3-0.3-0.6-0.6-0.7-1c-0.1-0.3-0.2-0.8-0.2-1.3c0-0.9,0.3-1.6,1-2.2c0.6-0.6,1.6-0.8,2.7-0.8c1,0,2.1,0.2,3.1,0.7l-0.8,2.1
		c-0.9-0.4-1.7-0.6-2.4-0.6c-0.3,0-0.6,0.1-0.8,0.2c-0.1,0.1-0.2,0.3-0.2,0.5s0.1,0.3,0.3,0.6c0.2,0.2,0.8,0.4,1.7,0.8
		c0.8,0.4,1.5,0.8,1.8,1.3C758.7,147.7,758.8,148,758.8,148.7z"/>
</g>
<g>
	<path class="st7" d="M563.1,16.2c-0.9,0-1.6,0.4-2.1,1.1s-0.8,1.8-0.8,3.1c0,2.7,1,4.1,3.1,4.1c0.6,0,1.2-0.1,1.8-0.3
		c0.6-0.2,1.2-0.4,1.8-0.6v3.3c-1.2,0.5-2.5,0.8-4,0.8c-2.2,0-3.8-0.6-5-1.9s-1.7-3.1-1.7-5.4c0-1.5,0.3-2.8,0.8-3.9
		c0.6-1.1,1.4-2,2.4-2.6s2.3-0.9,3.7-0.9c1.5,0,3,0.3,4.4,1l-1.2,3c-0.5-0.2-1.1-0.5-1.6-0.6C564.3,16.3,563.7,16.2,563.1,16.2z"/>
	<path class="st7" d="M572.5,21.8h-3.6v-2.6h3.6v-3.6h2.6v3.6h3.6v2.6h-3.6v3.5h-2.6V21.8z"/>
	<path class="st7" d="M583.9,21.8h-3.6v-2.6h3.6v-3.6h2.6v3.6h3.6v2.6h-3.6v3.5h-2.6V21.8z"/>
</g>
<g>
	<path class="st7" d="M456.9,95.9c-0.6,0-1.2-0.1-1.8-0.2v-2.6c0.2,0,0.4,0.1,0.6,0.1s0.4,0.1,0.7,0.1c0.6,0,1-0.2,1.2-0.5
		s0.4-0.9,0.4-1.7V79.4h3.4v11.3c0,1.7-0.4,3-1.1,3.9C459.5,95.5,458.3,95.9,456.9,95.9z"/>
	<path class="st7" d="M470.2,91.9l-0.6-1.3h-0.1c-0.5,0.6-0.9,0.9-1.4,1.2c-0.5,0.2-1.1,0.3-1.8,0.3c-0.9,0-1.6-0.3-2.2-0.8
		c-0.5-0.5-0.8-1.3-0.8-2.3s0.4-1.8,1.1-2.3s1.8-0.8,3.1-0.9l1.6-0.1v-0.1c0-0.8-0.4-1.2-1.2-1.2c-0.7,0-1.6,0.2-2.7,0.7l-1-2.2
		c1.1-0.6,2.6-0.9,4.3-0.9c1.2,0,2.2,0.3,2.9,0.9c0.7,0.6,1,1.5,1,2.6v6.4C472.4,91.9,470.2,91.9,470.2,91.9z M467.7,89.7
		c0.4,0,0.8-0.1,1-0.4c0.3-0.3,0.4-0.6,0.4-1v-0.8h-0.8c-1.1,0-1.7,0.4-1.7,1.2C466.7,89.5,467.1,89.7,467.7,89.7z"/>
	<path class="st7" d="M477.3,91.9l-3.7-9.7h3.5l1.6,5.8v0.1c0,0.1,0,0.2,0.1,0.2c0,0.1,0,0.2,0,0.3c0,0.1,0,0.2,0,0.3h0.1
		c0-0.3,0.1-0.6,0.2-1l1.7-5.8h3.5l-3.7,9.7L477.3,91.9L477.3,91.9z"/>
	<path class="st7" d="M491.9,91.9l-0.6-1.3h-0.1c-0.5,0.6-0.9,0.9-1.4,1.2c-0.5,0.2-1.1,0.3-1.8,0.3c-0.9,0-1.6-0.3-2.2-0.8
		c-0.5-0.5-0.8-1.3-0.8-2.3s0.4-1.8,1.1-2.3s1.8-0.8,3.1-0.9l1.6-0.1v-0.1c0-0.8-0.4-1.2-1.2-1.2c-0.7,0-1.6,0.2-2.7,0.7l-1-2.2
		c1.1-0.6,2.6-0.9,4.3-0.9c1.2,0,2.2,0.3,2.9,0.9s1,1.5,1,2.6v6.4C494.1,91.9,491.9,91.9,491.9,91.9z M489.4,89.7
		c0.4,0,0.8-0.1,1-0.4c0.3-0.3,0.4-0.6,0.4-1v-0.8H490c-1.1,0-1.7,0.4-1.7,1.2C488.4,89.5,488.8,89.7,489.4,89.7z"/>
</g>
<g>
	<path class="st7" d="M632.7,15.7h6.2v7.7c-1.7,0.6-3.5,0.9-5.5,0.9c-2.2,0-3.9-0.6-5.1-1.9s-1.8-3.1-1.8-5.5c0-2.3,0.7-4.1,2-5.4
		s3.2-1.9,5.5-1.9c0.9,0,1.7,0.1,2.5,0.3s1.5,0.4,2.1,0.6l-1.2,3c-1-0.5-2.2-0.8-3.4-0.8c-1.1,0-2,0.4-2.6,1.1s-0.9,1.8-0.9,3.1
		s0.3,2.4,0.8,3.1s1.4,1,2.4,1c0.6,0,1.1-0.1,1.6-0.2v-2.2h-2.5L632.7,15.7L632.7,15.7z"/>
	<path class="st7" d="M652.2,18.5c0,1.8-0.5,3.2-1.5,4.2s-2.3,1.5-4.1,1.5c-1.7,0-3-0.5-4-1.6s-1.5-2.4-1.5-4.2s0.5-3.2,1.5-4.2
		s2.3-1.5,4.1-1.5c1.1,0,2,0.2,2.9,0.7s1.5,1.1,1.9,2C651.9,16.4,652.2,17.4,652.2,18.5z M645,18.5c0,1,0.1,1.7,0.4,2.2
		s0.7,0.7,1.3,0.7s1-0.2,1.3-0.7s0.4-1.2,0.4-2.2c0-0.9-0.1-1.7-0.4-2.1c-0.2-0.5-0.7-0.7-1.3-0.7s-1,0.2-1.3,0.7
		C645.1,16.9,645,17.6,645,18.5z"/>
</g>
<g>
	<path class="st7" d="M581.1,42c0,0.9-0.3,1.5-0.8,2s-1.2,0.7-2.2,0.7h-0.6v2.6h-2.1v-7.7h2.7c1,0,1.7,0.2,2.2,0.6
		C580.9,40.6,581.1,41.2,581.1,42z M577.6,43h0.4c0.3,0,0.6-0.1,0.7-0.3c0.2-0.2,0.3-0.4,0.3-0.7c0-0.5-0.3-0.8-0.9-0.8h-0.5V43z"/>
	<path class="st7" d="M581.5,41.3h2.2l1,3.4c0,0.2,0.1,0.4,0.1,0.6l0,0c0-0.2,0.1-0.5,0.1-0.6l1-3.4h2.1l-2.4,6.3
		c-0.3,0.8-0.7,1.4-1.1,1.7s-1,0.5-1.7,0.5c-0.3,0-0.6,0-0.8-0.1v-1.6c0.2,0,0.4,0.1,0.6,0.1c0.2,0,0.3,0,0.5-0.1s0.3-0.2,0.4-0.3
		c0.1-0.1,0.2-0.3,0.3-0.6L581.5,41.3z"/>
	<path class="st7" d="M591.7,45.7c0.3,0,0.6-0.1,1-0.2V47c-0.3,0.1-0.5,0.2-0.8,0.3s-0.5,0.1-0.9,0.1c-0.7,0-1.2-0.2-1.5-0.5
		S589,46,589,45.3v-2.5h-0.7V42l0.9-0.6l0.5-1.3h1.3v1.2h1.5v1.5H591v2.3C591.1,45.6,591.3,45.7,591.7,45.7z"/>
	<path class="st7" d="M597.5,47.3V44c0-0.8-0.2-1.2-0.7-1.2c-0.3,0-0.6,0.1-0.7,0.4c-0.2,0.3-0.2,0.8-0.2,1.4v2.6h-2.1V39h2.1v1.2
		c0,0.5,0,1.1-0.1,1.8h0.1c0.2-0.3,0.4-0.5,0.7-0.7c0.3-0.1,0.6-0.2,0.9-0.2c0.7,0,1.2,0.2,1.6,0.6s0.6,0.9,0.6,1.6v3.9h-2.2
		L597.5,47.3L597.5,47.3z"/>
	<path class="st7" d="M606.6,44.3c0,1-0.3,1.7-0.8,2.3c-0.5,0.5-1.3,0.8-2.2,0.8s-1.6-0.3-2.2-0.8c-0.5-0.6-0.8-1.3-0.8-2.3
		s0.3-1.7,0.8-2.3c0.5-0.5,1.3-0.8,2.2-0.8c0.6,0,1.1,0.1,1.6,0.4s0.8,0.6,1,1.1C606.5,43.1,606.6,43.7,606.6,44.3z M602.8,44.3
		c0,0.5,0.1,0.9,0.2,1.2c0.1,0.3,0.4,0.4,0.7,0.4s0.5-0.1,0.7-0.4c0.1-0.3,0.2-0.7,0.2-1.2s-0.1-0.9-0.2-1.2s-0.4-0.4-0.7-0.4
		s-0.5,0.1-0.7,0.4C602.9,43.4,602.8,43.8,602.8,44.3z"/>
	<path class="st7" d="M611.6,47.3V44c0-0.4-0.1-0.7-0.2-0.9c-0.1-0.2-0.3-0.3-0.5-0.3c-0.3,0-0.6,0.1-0.8,0.4
		c-0.2,0.3-0.2,0.8-0.2,1.4v2.6h-2.1v-6h1.6l0.3,0.7h0.1c0.2-0.3,0.4-0.5,0.7-0.6s0.7-0.2,1.1-0.2c0.7,0,1.2,0.2,1.5,0.6
		c0.4,0.4,0.5,0.9,0.5,1.6v3.9L611.6,47.3L611.6,47.3z"/>
</g>
<g>
	<path class="st13" d="M483.9,118.4c0,0,16.4-4.1,18.5,12.3c2.1,16.5-1,20.2-0.3,25.8s-13.3,7.6-18.3,3.9
		C478.9,156.8,478,125.6,483.9,118.4z"/>
	<g>
		<path class="st7" d="M473.8,250.9L473.8,250.9c0.9-0.3,1.4-1.2,1.1-2l-13.7-37.2l-3.5,0.4l14,37.8
			C471.9,250.7,472.9,251.1,473.8,250.9z"/>
		<path class="st7" d="M460.2,218.1h37.2c2.6,0,4.8-2.1,4.8-4.8l0,0c0-2.6-2.1-4.8-4.8-4.8h-37.2c-2.6,0-4.8,2.1-4.8,4.8l0,0
			C455.4,215.9,457.5,218.1,460.2,218.1z"/>
		<path class="st7" d="M493.7,213.3h-3.6l13.5,36.6c0.3,0.8,1.3,1.3,2.2,1c0.9-0.3,1.4-1.2,1.1-2L493.7,213.3z"/>
		<path class="st7" d="M491.8,213.3l-13.1,35.6c-0.3,0.8,0.2,1.7,1.1,2s1.9-0.2,2.2-1l13.5-36.6L491.8,213.3L491.8,213.3z"/>
		<path class="st7" d="M461.8,213.3l-13.1,35.6c-0.3,0.8,0.2,1.7,1.1,2s1.9-0.2,2.2-1l13.5-36.6L461.8,213.3L461.8,213.3z"/>
	</g>
	<polygon class="st8" points="470.5,209.8 506.7,206.7 520.7,159 483,159 	"/>
	<path class="st20" d="M488.6,207.7L488.6,207.7c-15.4,0.9-19.8-2.7-18.1-11.3l1.3-6l30.7,0.6l-0.7,3.7
		C500.1,203.4,497.2,207.7,488.6,207.7z"/>
	<path class="st33" d="M507.9,190.6c7.7-29,12.1-31.6,12.1-31.6c1.5,0,2.7,1.5,2.2,2.9l-12.1,44c-1.1,4.1-4.9,7-9.2,7H500h-16.3
		c-5.7-0.1-4.3-6.2,1.4-6.2C493.7,206.9,505.2,204.7,507.9,190.6z"/>
	<polygon class="st17" points="470.9,155.3 465.8,172.6 449.3,174.9 452,178.7 472.5,178.4 480.5,158.9 	"/>
	<path class="st11" d="M470.9,155.3l-5.1,17.2l-4.3,0.6c0.3,0.7,0.5,1.5,0.7,2.2c0.5,1,1,2.1,1.5,3.1l8.8-0.1l8-19.5L470.9,155.3z"
		/>
	
		<ellipse transform="matrix(0.9976 -6.935003e-02 6.935003e-02 0.9976 -7.8889 34.1648)" class="st13" cx="488.1" cy="130.7" rx="11.6" ry="9.9"/>
	<path class="st17" d="M491.9,131.8c-0.5,0.2-1,0.4-1.4,0.6l-0.2-2.6c-0.2-2.7-2.5-4.8-5.3-4.6l-1.6,0.1c-2.7,0.2-4.8,2.5-4.6,5.3
		l0.4,6.2c0.2,2.7,2.5,4.8,5.3,4.6l0,0c1.3-0.1,2.5,0.9,2.6,2.2c0.1,1.8,0.2,3.6,0.3,5.4c2.2-0.5,4.4-0.7,6.6-0.6
		C492.8,142.8,492.1,137.3,491.9,131.8z"/>
	<path class="st13" d="M480.3,126.9c-2.5-1.4-3-4.8-0.9-6.8c0.1-0.1,0.3-0.3,0.4-0.4c1.8-1.4,4.2-1.7,6.4-1.7c3.3,0,6.8,0.6,9,3
		c0.8,0.9,1.4,2.1,1.9,3.2c0.5,1.3,0.8,2.8,0.3,4.2c-0.6,1.9-2.5,3.2-4.5,3.3c-0.9,0-1.7,0.6-2.6,0.4c-1.3-0.3-2.8-1.5-4-2.1
		C484.8,129.4,482.2,127.9,480.3,126.9z"/>
	<path class="st11" d="M495.2,146.3c-3,0.1-6,0.2-9.1,0.3c-2.3,0.1-4.5,0.1-6.8,0.7c-2.3,0.6-4.6,1.8-6.1,3.6
		c-1.1,1.3-1.7,2.9-2.2,4.4c-0.9,2.6-1.5,5.2-1.9,7.8l0.5,4.7l9.5-6.2c0,0-5.5,20.3-7.2,29.5c3.1,0.3,7.7,0.5,11.5,0.5l0,0
		c4,0.1,15.2-0.1,19.4-0.5c2.6-9.1,5-25.9,5-25.9S511.9,146.3,495.2,146.3z"/>
	<path class="st17" d="M486,146.4c0,0-0.9,6.5,2.8,6.5c3.7,0,7.5-6.5,7.5-6.5l-4.8-1.3L486,146.4z"/>
	<path class="st17" d="M494.8,133.8c0.1,1.7-0.8,3.2-2.1,3.3c-1.3,0.1-2.4-1.2-2.6-2.9c-0.1-1.7,0.8-3.2,2.1-3.3
		S494.7,132.1,494.8,133.8z"/>
	<path class="st33" d="M448.7,212.9H481c1.6,0,2.9-1.3,2.9-2.9l0,0c0-1.6-1.3-2.9-2.9-2.9h-32.3c-1.6,0-2.9,1.3-2.9,2.9l0,0
		C445.8,211.6,447.1,212.9,448.7,212.9z"/>
	<path class="st13" d="M464.9,243.6l5.1-0.1l0.9,3.8c0.2,0.7,0.1,1.4-0.3,2c-0.3,0.4-0.7,0.6-1.1,0.6l-12.8,0.2
		c-1.3,0-2.3-3.7,1.7-4.8C458.4,245.2,463.2,243.6,464.9,243.6z"/>
	<path class="st13" d="M449.4,243.6l5.1-0.1l0.9,3.8c0.2,0.7,0.1,1.4-0.3,2c-0.3,0.4-0.7,0.6-1.1,0.6l-12.8,0.2
		c-1.3,0-2.3-3.7,1.7-4.8C442.9,245.2,447.8,243.6,449.4,243.6z"/>
	<path class="st20" d="M448.6,243.5l-0.6-33c-0.1-7.8,5.1-11.7,15.5-13.5l10.6-1.9l6,12l-18,0.6c-2.6,0.3-4.5,2-4.8,4.4l-2.8,31.4
		H448.6z"/>
	<polygon class="st17" points="493.1,159.8 487.6,172.6 471.1,174.9 473.8,178.7 494.2,178.4 500.2,163.9 	"/>
	<path class="st11" d="M493.1,159.8l-5.5,12.8l-5.9,0.8c0.9,1.6,1.7,3.2,2.5,4.8c0.1,0.1,0.2,0.2,0.3,0.3l9.7-0.1l5.9-14.4
		L493.1,159.8z"/>
	<g>
		<path class="st18" d="M477.2,178.4h-34.1c-0.8,0-1.5-0.7-1.5-1.5l0,0c0-0.8,0.7-1.5,1.5-1.5h34.1c0.8,0,1.5,0.7,1.5,1.5l0,0
			C478.7,177.7,478,178.4,477.2,178.4z"/>
		<path class="st7" d="M465.1,178.4h-29.4c-1.4,0-2.8-1.1-3.2-2.5l-5.5-20.2c-0.4-1.4,0.4-2.5,1.8-2.5h29.4c1.4,0,2.8,1.1,3.2,2.5
			l5.5,20.2C467.3,177.2,466.5,178.4,465.1,178.4z"/>
		<path class="st18" d="M463.7,178.4h-29.4c-1.4,0-2.8-1.1-3.2-2.5l-5.5-20.2c-0.4-1.4,0.4-2.5,1.8-2.5h29.4c1.4,0,2.8,1.1,3.2,2.5
			l5.5,20.2C466,177.2,465.1,178.4,463.7,178.4z"/>
		<path class="st7" d="M446.9,168.1H444c-1.3,0-2.7-1.1-3-2.4l0,0c-0.4-1.3,0.4-2.4,1.7-2.4h2.9c1.3,0,2.7,1.1,3,2.4l0,0
			C449,167.1,448.2,168.1,446.9,168.1z"/>
	</g>
	<path class="st20" d="M488.3,194.8l-15.2,8.2c-5.4,2.9-8.6,7.2-9.2,12v28.7l6.2-0.2l1.8-24.7c1.3-4.4,6.3-7.3,11.7-9.8l4.5-1.5
		c5.7-1.9,6.2-8.7,1-12.2L488.3,194.8z"/>
</g>
<path class="st13" d="M565.6,243.1l5.2-0.1l0.9,3.8c0.2,0.7,0.1,1.5-0.3,2c-0.3,0.4-0.7,0.6-1.1,0.6l-13,0.2c-1.3,0-2.3-3.7,1.8-4.9
	C559,244.8,564,243.2,565.6,243.1z"/>
<path class="st20" d="M608.3,207.7L608.3,207.7c-15.4,0.9-19.7-4.4-18-13l0.7-3.7h31.2l-0.7,3.7
	C619.8,203.4,616.9,207.7,608.3,207.7z"/>
<path class="st8" d="M643.2,183.2H410.6c-1.4,0-2.6-1.2-2.6-2.6l0,0c0-1.4,1.2-2.6,2.6-2.6h232.6c1.4,0,2.6,1.2,2.6,2.6l0,0
	C645.7,182.1,644.6,183.2,643.2,183.2z"/>
<path class="st10" d="M613.6,143.4c-3.3-0.3-6-0.2-9.3-0.3c-3.3,0.1-6.6,0.2-9.9,0.3c-2.5,0.1-7,0-8.3,3.6
	c-0.7,2.2,2.1,10.3,2.1,10.3s1.7,27.6,2.2,37.2c3.5,0.3,25.8-0.1,30.3-0.5c0.3-6.9,3.5-29.3,3.1-36.7
	C623.1,147,616.5,143.7,613.6,143.4z"/>
<path class="st17" d="M586.8,151.9l-4.2,9.7c-1,2.3-3.3,7.5-4.4,9l-14.2-0.4l-2.6,3.7l17.5,4c2.4,0.4,4.9-0.8,6.5-3.4c0,0,0,0,0-0.1
	l8.2-20.3L586.8,151.9z"/>
<polygon class="st10" points="597.4,152.8 587.2,171 578.5,167.3 586,147 "/>
<path class="st13" d="M585.7,243.6l5.1-0.1l0.9,3.8c0.2,0.7,0.1,1.4-0.3,2c-0.3,0.4-0.7,0.6-1.1,0.6l-12.8,0.2
	c-1.3,0-2.3-3.7,1.7-4.8C579.2,245.2,584.1,243.6,585.7,243.6z"/>
<path class="st20" d="M564.9,243.5l-0.6-33c-0.1-7.8,5.1-11.7,15.5-13.5l10.6-1.9l5.1,13.4H578c-2.6,0.3-4.1,1.2-4.4,3.6l0.6,31.4
	H564.9z"/>
<path class="st20" d="M609.1,194.8L594,203c-5.4,2.9-8.6,7.2-9.2,12v28.7l8-0.2v-24.7c1.3-4.4,6.3-7.3,11.7-9.8l4.5-1.5
	c5.7-1.9,6.2-8.7,1-12.2L609.1,194.8z"/>
<g>
	<path class="st7" d="M598.9,250.9L598.9,250.9c0.9-0.3,1.4-1.2,1.1-2l-13.7-37.2l-3.5,0.4l14,37.8C597,250.7,598,251.1,598.9,250.9
		z"/>
	<path class="st7" d="M585.3,218.1h37.2c2.6,0,4.8-2.1,4.8-4.8l0,0c0-2.6-2.1-4.8-4.8-4.8h-37.2c-2.6,0-4.8,2.1-4.8,4.8l0,0
		C580.6,215.9,582.7,218.1,585.3,218.1z"/>
	<path class="st7" d="M618.8,213.3h-3.6l13.5,36.6c0.3,0.8,1.3,1.3,2.2,1s1.4-1.2,1.1-2L618.8,213.3z"/>
	<path class="st7" d="M616.9,213.3l-13.1,35.6c-0.3,0.8,0.2,1.7,1.1,2c0.9,0.3,1.9-0.2,2.2-1l13.5-36.6L616.9,213.3L616.9,213.3z"/>
	<path class="st7" d="M586.9,213.3l-13.1,35.6c-0.3,0.8,0.2,1.7,1.1,2c0.9,0.3,1.9-0.2,2.2-1l13.5-36.6L586.9,213.3L586.9,213.3z"/>
</g>
<g>
	<g>
		<path class="st33" d="M633,192.1c7.7-29,12.1-31.6,12.1-31.6c1.5,0,2.7,1.5,2.2,2.9l-12.1,44c-1.1,4.1-4.9,7-9.2,7h-0.9h-24.5
			l-0.5-3.7C600.9,204.5,628.4,215.4,633,192.1z"/>
		<path class="st33" d="M573.8,214.4h32.3c1.6,0,2.9-1.3,2.9-2.9l0,0c0-1.6-1.3-2.9-2.9-2.9h-32.3c-1.6,0-2.9,1.3-2.9,2.9l0,0
			C570.9,213.1,572.2,214.4,573.8,214.4z"/>
		<path class="st33" d="M595.6,211.2l36.3-3.1l13.9-47.7h-26.4c-6.6,0-12.3,4.5-13.9,10.9L595.6,211.2z"/>
	</g>
</g>
</svg>
