<?xml version="1.0" encoding="utf-8"?>
<!-- Generator: Adobe Illustrator 24.0.1, SVG Export Plug-In . SVG Version: 6.00 Build 0)  -->
<svg version="1.1" xmlns="http://www.w3.org/2000/svg" xmlns:xlink="http://www.w3.org/1999/xlink" x="0px" y="0px" width="122.7px"
	 height="126px" viewBox="0 0 122.7 126" style="enable-background:new 0 0 122.7 126;" xml:space="preserve">
<style type="text/css">
	.st0{fill:#FF6600;}
	.st1{fill:#A52A2A;}
</style>
<g id="Background">
</g>
<g id="Graphic_Elements">
	<g>
		<g>
			<g>
				<path class="st0" d="M62.3,63.9c8.3,9.4,18,16.5,27.3,20c0.1,0,0.1,0,0.2,0.1l28.9-64.3c1-2.3-0.9-4.8-3.4-4.3L45,28.2
					C45.7,38.5,51.9,52,62.3,63.9z"/>
				<path class="st1" d="M84.6,89.1C75.1,85,65.5,77.7,57.3,68.3c-11.4-12.9-18-27.1-19-38.9L2.5,36c-2.8,0.5-3.5,4.2-1.1,5.7
					l43.6,26.6c2.6,1.6,4.5,4,5.4,6.9l15.4,48.7c0.9,2.7,4.6,2.9,5.8,0.3L87,90.1C86.2,89.8,85.4,89.5,84.6,89.1z"/>
			</g>
			<g>
				<path class="st0" d="M86.8,84.2c-9.5-4.2-19.1-11.5-27.3-20.8C40,41.4,34.5,15.6,46.9,4.7c12.4-10.9,37.3-2.2,56.7,19.9
					c6.3,7.2,11.5,15.2,14.8,23.1c0.7,1.7-0.1,3.7-1.8,4.4c-1.7,0.7-3.7-0.1-4.4-1.8c-3.1-7.2-7.8-14.6-13.6-21.3
					C82.2,10.4,60.6,1.6,51.4,9.7c-9.2,8.1-3.2,30.7,13.1,49.3c8.3,9.4,18,16.5,27.3,20c8.6,3.2,15.7,3,19.9-0.8
					c4.4-3.9,4.7-10.5,4.1-15.3c-0.2-1.8,1.1-3.5,2.9-3.7c1.8-0.2,3.5,1.1,3.7,2.9c1.1,9.1-1.2,16.6-6.3,21.1
					c-6.2,5.5-15.7,6.2-26.7,2C88.5,85,87.6,84.6,86.8,84.2z"/>
			</g>
		</g>
	</g>
</g>
</svg>
